<svg width="24" height="24" viewBox="0 0 24 24" fill="none" xmlns="http://www.w3.org/2000/svg">
<path fill-rule="evenodd" clip-rule="evenodd" d="M5.16528 13.9152C4.89706 14.8096 4.76381 15.2563 4.79648 15.6806C4.82743 16.0547 4.9495 16.4144 5.15152 16.7256C5.38019 17.0773 5.75329 17.3374 6.5012 17.8568L9.80147 20.1533C10.4677 20.6161 10.8013 20.8485 11.1615 20.9391C11.4795 21.0198 11.8122 21.0198 12.1312 20.9418C12.4922 20.8521 12.8275 20.6215 13.4963 20.1613L16.8327 17.8604C17.5875 17.3392 17.9657 17.08 18.1978 16.7248C18.4012 16.4122 18.5233 16.05 18.552 15.6734C18.5856 15.2455 18.4472 14.7961 18.1738 13.8955L15.2509 4.29709C15.1091 3.83063 15.0386 3.59829 14.9027 3.42516C14.7831 3.27307 14.6284 3.15517 14.4531 3.08249C14.2554 2.99996 14.0216 2.99996 13.5531 2.99996H9.74387C9.27363 2.99996 9.03722 2.99996 8.83864 3.08428C8.66278 3.15713 8.50771 3.27571 8.38817 3.42875C8.25235 3.60278 8.18271 3.8369 8.04345 4.30516L5.16528 13.9161V13.9152ZM13.7018 5.03715C13.8135 5.18247 13.872 5.38072 13.9863 5.77273L16.4957 14.3736C15.553 13.8636 14.5413 13.5067 13.4955 13.3151L11.8621 7.55336C11.8487 7.50791 11.8216 7.46815 11.785 7.4399C11.7483 7.41166 11.7039 7.39642 11.6584 7.39642C11.6128 7.39642 11.5684 7.41166 11.5317 7.4399C11.4951 7.46815 11.468 7.50791 11.4546 7.55336L9.84015 13.3106C8.78963 13.5018 7.77343 13.86 6.82702 14.3727L9.34928 5.77183C9.46362 5.37803 9.52122 5.18158 9.63383 5.03625C9.73355 4.90798 9.86336 4.8084 10.0095 4.74651C10.1763 4.67654 10.3731 4.67654 10.7669 4.67654H12.5679C12.9616 4.67654 13.1593 4.67654 13.3261 4.74651C13.4723 4.8084 13.6012 4.90798 13.7018 5.03715ZM11.7564 15.4043C12.7071 15.4043 13.5333 15.1531 13.9468 14.7835C14.0203 15.0249 14.0463 15.2793 14.0234 15.5315C14.0006 15.7837 13.9292 16.0284 13.8135 16.2511C13.5488 16.7624 13.1645 17.0163 12.818 17.245C12.3831 17.533 12.0091 17.7815 12.0091 18.4471C12.0091 18.6669 12.0572 18.8768 12.1441 19.0625C11.8511 18.9354 11.6007 18.7206 11.4246 18.4452C11.2485 18.1698 11.1546 17.8461 11.1546 17.515V17.4738C11.1546 17.0145 11.1554 16.4485 10.5339 16.4485C10.4475 16.4483 10.362 16.466 10.2822 16.5004C10.2023 16.5347 10.1298 16.5852 10.0686 16.6488C10.0075 16.7125 9.95894 16.788 9.92579 16.8713C9.89263 16.9545 9.87551 17.0437 9.8754 17.1338C9.17735 16.4045 9.23839 15.355 9.23839 15.355C9.23839 15.1406 9.25902 14.8069 9.351 14.5153C9.61062 15.0249 10.5889 15.4034 11.7564 15.4034V15.4043Z" fill="#EA580C"/>
</svg>
