<svg width="24" height="24" viewBox="0 0 24 24" fill="none" xmlns="http://www.w3.org/2000/svg">
<path d="M14.8461 9.9375H12.3575C12.312 9.61553 12.2192 9.32955 12.0791 9.07955C11.9389 8.82576 11.759 8.60985 11.5393 8.43182C11.3196 8.25379 11.0658 8.11742 10.778 8.02273C10.4939 7.92803 10.1852 7.88068 9.85182 7.88068C9.24955 7.88068 8.72493 8.0303 8.27796 8.32955C7.83099 8.625 7.4844 9.05682 7.23818 9.625C6.99197 10.1894 6.86887 10.875 6.86887 11.6818C6.86887 12.5114 6.99197 13.2083 7.23818 13.7727C7.48818 14.3371 7.83667 14.7633 8.28364 15.0511C8.73061 15.339 9.24765 15.483 9.83477 15.483C10.1643 15.483 10.4692 15.4394 10.7495 15.3523C11.0336 15.2652 11.2855 15.1383 11.5052 14.9716C11.7249 14.8011 11.9067 14.5947 12.0507 14.3523C12.1984 14.1098 12.3007 13.8333 12.3575 13.5227L14.8461 13.5341C14.7817 14.0682 14.6208 14.5833 14.3632 15.0795C14.1094 15.572 13.7666 16.0133 13.3348 16.4034C12.9067 16.7898 12.3954 17.0966 11.8007 17.3239C11.2098 17.5473 10.5412 17.6591 9.795 17.6591C8.75712 17.6591 7.82909 17.4242 7.01091 16.9545C6.19652 16.4848 5.55258 15.8049 5.07909 14.9148C4.6094 14.0246 4.37455 12.947 4.37455 11.6818C4.37455 10.4129 4.61318 9.33333 5.09046 8.44318C5.56773 7.55303 6.21546 6.875 7.03364 6.40909C7.85182 5.93939 8.77227 5.70455 9.795 5.70455C10.4692 5.70455 11.0942 5.79924 11.67 5.98864C12.2495 6.17803 12.7628 6.45455 13.2098 6.81818C13.6567 7.17803 14.0204 7.61932 14.3007 8.14205C14.5848 8.66477 14.7666 9.26326 14.8461 9.9375Z" fill="#14B8A6"/>
<path d="M19.4279 16.4693L20.8333 7.53065H22.1718L20.7664 16.4693H19.4279ZM15.5923 14.2521L15.814 12.8555H22.5064L22.2847 14.2521H15.5923ZM16.4163 16.4693L17.8217 7.53065H19.1602L17.7548 16.4693H16.4163ZM16.0817 11.1445L16.3076 9.74786H23L22.7741 11.1445H16.0817Z" fill="#14B8A6"/>
</svg>
