<svg width="24" height="24" viewBox="0 0 24 24" fill="none" xmlns="http://www.w3.org/2000/svg">
<path d="M4.79999 6.6C4.79999 5.9785 5.08376 5.43598 5.49679 4.99823C5.90645 4.56406 6.4677 4.2037 7.11 3.91577C8.39616 3.33921 10.1256 3 12 3C13.8743 3 15.6038 3.33921 16.89 3.91577C17.5323 4.2037 18.0935 4.56406 18.5032 4.99823C18.9162 5.43598 19.2 5.9785 19.2 6.6V17.4C19.2 18.0215 18.9162 18.5641 18.5032 19.0018C18.0935 19.436 17.5323 19.7963 16.89 20.0842C15.6038 20.6608 13.8743 21 12 21C10.1256 21 8.39616 20.6608 7.11 20.0842C6.4677 19.7963 5.90645 19.436 5.49679 19.0018C5.08376 18.5641 4.79999 18.0215 4.79999 17.4V6.6ZM6.14999 6.6C6.14999 6.78622 6.23138 7.01318 6.47871 7.27531C6.72943 7.54103 7.12374 7.81095 7.66223 8.05235C8.73766 8.53443 10.2707 8.85 12 8.85C13.7292 8.85 15.2623 8.53443 16.3377 8.05235C16.8762 7.81095 17.2706 7.54103 17.5213 7.27531C17.7686 7.01318 17.85 6.78622 17.85 6.6C17.85 6.41378 17.7686 6.18682 17.5213 5.92469C17.2706 5.65897 16.8762 5.38904 16.3377 5.14765C15.2623 4.66557 13.7292 4.35 12 4.35C10.2707 4.35 8.73766 4.66557 7.66223 5.14765C7.12374 5.38904 6.72943 5.65897 6.47871 5.92469C6.23138 6.18682 6.14999 6.41378 6.14999 6.6ZM17.85 8.75318C17.5612 8.95154 17.2374 9.12848 16.89 9.28423C15.6038 9.86079 13.8743 10.2 12 10.2C10.1256 10.2 8.39616 9.86079 7.11 9.28423C6.76255 9.12848 6.43883 8.95154 6.14999 8.75318V17.4C6.14999 17.5862 6.23138 17.8132 6.47871 18.0753C6.72943 18.341 7.12374 18.611 7.66223 18.8523C8.73766 19.3345 10.2707 19.65 12 19.65C13.7292 19.65 15.2623 19.3345 16.3377 18.8523C16.8762 18.611 17.2706 18.341 17.5213 18.0753C17.7686 17.8132 17.85 17.5862 17.85 17.4V8.75318Z" fill="#F472B6"/>
<path fill-rule="evenodd" clip-rule="evenodd" d="M7.00774 3.68764C8.33293 3.09359 10.0988 2.75 12 2.75C13.9012 2.75 15.667 3.09359 16.9922 3.68764C17.6538 3.9842 18.2459 4.36129 18.685 4.82665C19.1285 5.29673 19.45 5.89769 19.45 6.6V17.4C19.45 18.1024 19.1286 18.7033 18.685 19.1734C18.2459 19.6387 17.6538 20.0159 16.9922 20.3124C15.667 20.9064 13.9012 21.25 12 21.25C10.0988 21.25 8.33293 20.9064 7.00774 20.3124C6.34621 20.0159 5.75405 19.6387 5.31496 19.1734C4.87142 18.7033 4.54999 18.1024 4.54999 17.4V6.6C4.54999 5.89769 4.87142 5.29673 5.31496 4.82666C5.75405 4.36129 6.34621 3.98419 7.00774 3.68764ZM6.66055 7.10374C6.88183 7.33827 7.24523 7.59144 7.7645 7.82422C8.8009 8.28881 10.2976 8.6 12 8.6C13.7024 8.6 15.1991 8.28881 16.2355 7.82422C16.7547 7.59144 17.1182 7.33827 17.3395 7.10374C17.5556 6.87463 17.6 6.70614 17.6 6.6C17.6 6.49386 17.5556 6.32537 17.3395 6.09626C17.1182 5.86173 16.7547 5.60855 16.2355 5.37578C15.1991 4.91119 13.7024 4.6 12 4.6C10.2976 4.6 8.8009 4.91119 7.76449 5.37578C7.24524 5.60855 6.88183 5.86173 6.66055 6.09626C6.44435 6.32539 6.39999 6.49388 6.39999 6.6C6.39999 6.70612 6.44435 6.87461 6.66055 7.10374ZM17.5213 5.92469C17.7686 6.18682 17.85 6.41378 17.85 6.6C17.85 6.78622 17.7686 7.01318 17.5213 7.27531C17.2706 7.54103 16.8762 7.81095 16.3377 8.05235C15.2623 8.53443 13.7292 8.85 12 8.85C10.2707 8.85 8.73766 8.53443 7.66223 8.05235C7.12374 7.81095 6.72943 7.54103 6.47871 7.27531C6.23138 7.01318 6.14999 6.78622 6.14999 6.6C6.14999 6.41378 6.23138 6.18682 6.47871 5.92469C6.72943 5.65897 7.12374 5.38904 7.66223 5.14765C8.73766 4.66557 10.2707 4.35 12 4.35C13.7292 4.35 15.2623 4.66557 16.3377 5.14765C16.8762 5.38904 17.2706 5.65897 17.5213 5.92469ZM7.11 20.0842C6.4677 19.7963 5.90645 19.436 5.49679 19.0018C5.08376 18.5641 4.79999 18.0215 4.79999 17.4V6.6C4.79999 5.9785 5.08376 5.43598 5.49679 4.99823C5.90645 4.56406 6.4677 4.2037 7.11 3.91577C8.39616 3.33921 10.1256 3 12 3C13.8743 3 15.6038 3.33921 16.89 3.91577C17.5323 4.2037 18.0935 4.56406 18.5032 4.99823C18.9162 5.43598 19.2 5.9785 19.2 6.6V17.4C19.2 18.0215 18.9162 18.5641 18.5032 19.0018C18.0935 19.436 17.5323 19.7963 16.89 20.0842C15.6038 20.6608 13.8743 21 12 21C10.1256 21 8.39616 20.6608 7.11 20.0842ZM6.66057 17.9037C6.88184 18.1383 7.24523 18.3914 7.76449 18.6242C8.80089 19.0888 10.2976 19.4 12 19.4C13.7024 19.4 15.1991 19.0888 16.2354 18.6242C16.7547 18.3914 17.1182 18.1383 17.3395 17.9037C17.5556 17.6747 17.6 17.5061 17.6 17.4V9.20456C17.4065 9.31531 17.2031 9.41784 16.9922 9.51236C15.667 10.1064 13.9012 10.45 12 10.45C10.0988 10.45 8.33293 10.1064 7.00773 9.51236C6.79688 9.41784 6.59345 9.3153 6.39999 9.20454V17.4C6.39999 17.5061 6.44439 17.6746 6.66057 17.9037ZM6.14999 8.75318C6.23068 8.80859 6.31409 8.86233 6.39999 8.91441C6.62156 9.04875 6.85962 9.17199 7.11 9.28423C8.39616 9.86079 10.1256 10.2 12 10.2C13.8743 10.2 15.6038 9.86079 16.89 9.28423C17.1404 9.17199 17.3784 9.04875 17.6 8.91442C17.6859 8.86234 17.7693 8.8086 17.85 8.75318V17.4C17.85 17.5862 17.7686 17.8132 17.5213 18.0753C17.2706 18.341 16.8762 18.6109 16.3377 18.8523C15.2623 19.3345 13.7292 19.65 12 19.65C10.2707 19.65 8.73766 19.3345 7.66223 18.8523C7.12374 18.6109 6.72943 18.341 6.47871 18.0753C6.23138 17.8132 6.14999 17.5862 6.14999 17.4V8.75318Z" fill="#F472B6"/>
</svg>
