<svg width="24" height="24" viewBox="0 0 24 24" fill="none" xmlns="http://www.w3.org/2000/svg">
<path d="M20.8943 10.5301C20.8423 10.4862 20.357 10.0959 19.3336 10.0959C19.0634 10.0971 18.7938 10.1218 18.5273 10.1697C18.3292 8.72367 17.2068 8.01865 17.1565 7.98703L16.8817 7.81823L16.7009 8.09602C16.4746 8.46919 16.3094 8.88055 16.2124 9.31263C16.0291 10.1381 16.1406 10.9134 16.5342 11.5762C16.0589 11.8584 15.2963 11.9278 15.142 11.934H2.51659C2.18682 11.9344 1.91923 12.2183 1.91743 12.5695C1.9027 13.7476 2.0901 14.9187 2.47038 16.0251C2.9053 17.2399 3.55234 18.1348 4.39415 18.6824C5.33746 19.2978 6.87003 19.6494 8.60727 19.6494C9.39208 19.652 10.1754 19.5764 10.947 19.4235C12.0196 19.2137 13.0517 18.8144 14.0006 18.242C14.7825 17.7597 15.4862 17.1462 16.0845 16.425C17.0847 15.219 17.6806 13.8757 18.1238 12.682H18.3004C19.3955 12.682 20.069 12.2152 20.4404 11.8241C20.6872 11.5746 20.8799 11.2707 21.0049 10.9336L21.0833 10.6892L20.8943 10.5301Z" fill="#60A5FA"/>
<path d="M3.6869 11.5401H5.37876C5.46035 11.5401 5.52648 11.4697 5.52648 11.3828V9.77764C5.52693 9.69072 5.46116 9.6199 5.37959 9.61941C5.37932 9.61941 5.37903 9.61941 5.37876 9.61941H3.6869C3.60531 9.61941 3.53918 9.68987 3.53918 9.77675V9.77764V11.3828C3.53918 11.4697 3.60531 11.5401 3.6869 11.5401Z" fill="#60A5FA"/>
<path d="M6.01833 11.5401H7.71018C7.79178 11.5401 7.8579 11.4697 7.8579 11.3828V9.77764C7.85836 9.69072 7.79258 9.6199 7.71099 9.61941C7.71072 9.61941 7.71042 9.61941 7.71016 9.61941H6.0183C5.93625 9.61941 5.86975 9.69024 5.86975 9.77764V11.3828C5.87023 11.4698 5.9366 11.5401 6.01833 11.5401Z" fill="#60A5FA"/>
<path d="M8.38529 11.5401H10.0771C10.1587 11.5401 10.2249 11.4697 10.2249 11.3828V9.77764C10.2253 9.69072 10.1596 9.6199 10.078 9.61941C10.0777 9.61941 10.0774 9.61941 10.0771 9.61941H8.38527C8.30367 9.61941 8.23755 9.68987 8.23755 9.77675V9.77764V11.3828C8.23758 11.4697 8.30372 11.5401 8.38529 11.5401Z" fill="#60A5FA"/>
<path d="M10.7241 11.5401H12.416C12.4977 11.5401 12.5641 11.4699 12.5645 11.3828V9.77764C12.5645 9.69024 12.498 9.61941 12.416 9.61941H10.7241C10.6425 9.61941 10.5764 9.68987 10.5764 9.77675V9.77764V11.3828C10.5764 11.4697 10.6426 11.5401 10.7241 11.5401Z" fill="#60A5FA"/>
<path d="M6.0183 9.23085H7.71015C7.79186 9.23037 7.85787 9.15966 7.85787 9.07263V7.46749C7.85787 7.38057 7.79173 7.31015 7.71015 7.31015H6.0183C5.9366 7.31015 5.87021 7.38043 5.86975 7.46749V9.07263C5.87021 9.15983 5.93643 9.23037 6.0183 9.23085Z" fill="#60A5FA"/>
<path d="M8.38527 9.23085H10.0771C10.1588 9.23037 10.2248 9.15966 10.2248 9.07263V7.46749C10.2248 7.38057 10.1587 7.31015 10.0771 7.31015H8.38527C8.30367 7.31015 8.23755 7.3806 8.23755 7.46749V9.07263C8.23755 9.15966 8.30356 9.23037 8.38527 9.23085Z" fill="#60A5FA"/>
<path d="M10.7241 9.23085H12.416C12.4979 9.23037 12.5641 9.15983 12.5645 9.07263V7.46749C12.5641 7.38043 12.4977 7.31015 12.416 7.31015H10.7241C10.6425 7.31015 10.5764 7.3806 10.5764 7.46749V9.07263C10.5764 9.15966 10.6424 9.23037 10.7241 9.23085Z" fill="#60A5FA"/>
<path d="M10.7241 6.92074H12.416C12.4977 6.92074 12.5641 6.85042 12.5645 6.7634V5.15734C12.5641 5.07028 12.4977 5 12.416 5H10.7241C10.6425 5 10.5764 5.07043 10.5764 5.15734V6.76337C10.5764 6.85028 10.6426 6.92074 10.7241 6.92074Z" fill="#60A5FA"/>
<path d="M13.0836 11.5401H14.7755C14.8572 11.5401 14.9236 11.4699 14.924 11.3828V9.77764C14.924 9.69024 14.8575 9.61941 14.7755 9.61941H13.0836C13.0021 9.61941 12.9359 9.68987 12.9359 9.77675V9.77764V11.3828C12.9359 11.4697 13.0021 11.5401 13.0836 11.5401Z" fill="#60A5FA"/>
</svg>
