<svg width="24" height="24" viewBox="0 0 24 24" fill="none" xmlns="http://www.w3.org/2000/svg">
<g clip-path="url(#clip0_20603_557)">
<g clip-path="url(#clip1_20603_557)">
<path fill-rule="evenodd" clip-rule="evenodd" d="M1.47761 9.7942C1.43317 9.7942 1.42206 9.77102 1.44428 9.73623L1.67761 9.42319C1.69983 9.38841 1.75539 9.36522 1.79983 9.36522H5.7665C5.81094 9.36522 5.82206 9.4 5.79983 9.43478L5.61094 9.73623C5.58872 9.77102 5.53317 9.8058 5.49983 9.8058L1.47761 9.7942Z" fill="#F472B6"/>
<path fill-rule="evenodd" clip-rule="evenodd" d="M-0.200184 10.8609C-0.244629 10.8609 -0.25574 10.8377 -0.233518 10.8029L-0.000184432 10.4899C0.0220378 10.4551 0.0775933 10.4319 0.122038 10.4319H5.1887C5.23315 10.4319 5.25537 10.4667 5.24426 10.5015L5.15537 10.7797C5.14426 10.8261 5.09982 10.8493 5.05537 10.8493L-0.200184 10.8609Z" fill="#F472B6"/>
<path fill-rule="evenodd" clip-rule="evenodd" d="M2.48872 11.9275C2.44427 11.9275 2.43316 11.8928 2.45539 11.858L2.61094 11.5681C2.63316 11.5333 2.67761 11.4986 2.72205 11.4986H4.94427C4.98872 11.4986 5.01094 11.5333 5.01094 11.5797L4.98872 11.858C4.98872 11.9043 4.94427 11.9391 4.91094 11.9391L2.48872 11.9275Z" fill="#F472B6"/>
<path fill-rule="evenodd" clip-rule="evenodd" d="M14.022 9.58551C13.322 9.77102 12.8442 9.91015 12.1553 10.0957C11.9887 10.142 11.9776 10.1536 11.8331 9.97971C11.6665 9.78261 11.5442 9.65508 11.3109 9.53913C10.6109 9.17971 9.93312 9.28406 9.29979 9.71305C8.54424 10.2232 8.15535 10.9768 8.16646 11.9159C8.17757 12.8435 8.78868 13.6087 9.66646 13.7362C10.422 13.8406 11.0553 13.5623 11.5553 12.971C11.6553 12.8435 11.7442 12.7044 11.8553 12.542C11.4553 12.542 10.9553 12.542 9.7109 12.542C9.47757 12.542 9.42201 12.3913 9.49979 12.1942C9.64424 11.8348 9.9109 11.2319 10.0665 10.9304C10.0998 10.8609 10.1776 10.7449 10.3442 10.7449H14.3887C14.3665 11.058 14.3665 11.371 14.322 11.6841C14.1998 12.5188 13.8998 13.2841 13.4109 13.9565C12.6109 15.058 11.5665 15.742 10.2442 15.9275C9.15535 16.0783 8.14424 15.858 7.25535 15.1623C6.43312 14.513 5.96646 13.6551 5.84424 12.5884C5.69979 11.3246 6.05535 10.1884 6.78868 9.19131C7.57757 8.11305 8.62201 7.42899 9.89979 7.18551C10.9442 6.98841 11.9442 7.11595 12.8442 7.75363C13.4331 8.15942 13.8553 8.71595 14.1331 9.38841C14.1998 9.49276 14.1553 9.55073 14.022 9.58551Z" fill="#F472B6"/>
<path d="M17.6998 15.9971C16.6887 15.9739 15.7665 15.6725 14.9887 14.9768C14.3331 14.3855 13.922 13.6319 13.7887 12.7391C13.5887 11.429 13.9331 10.2696 14.6887 9.23769C15.4998 8.12464 16.4776 7.54493 17.7998 7.30145C18.9331 7.09276 19.9998 7.2087 20.9665 7.89276C21.8442 8.51885 22.3887 9.36522 22.5331 10.4783C22.722 12.0435 22.2887 13.3188 21.2554 14.4087C20.522 15.1855 19.622 15.6725 18.5887 15.8928C18.2887 15.9507 17.9887 15.9623 17.6998 15.9971ZM20.3442 11.313C20.3331 11.1623 20.3331 11.0464 20.3109 10.9304C20.1109 9.78261 19.0998 9.13334 18.0442 9.38841C17.0109 9.63189 16.3442 10.3159 16.0998 11.4058C15.8998 12.3101 16.322 13.2261 17.122 13.5971C17.7331 13.8754 18.3442 13.8406 18.9331 13.5275C19.8109 13.0522 20.2887 12.3101 20.3442 11.313Z" fill="#F472B6"/>
</g>
</g>
<defs>
<clipPath id="clip0_20603_557">
<rect width="24" height="24" fill="white"/>
</clipPath>
<clipPath id="clip1_20603_557">
<rect width="23" height="9.04348" fill="white" transform="translate(-0.322388 7)"/>
</clipPath>
</defs>
</svg>
