<svg width="24" height="24" viewBox="0 0 24 24" fill="none" xmlns="http://www.w3.org/2000/svg">
<path d="M10.8808 16.1769C10.8808 18.4838 9.08867 20.3539 6.8779 20.3539C4.66713 20.3539 2.875 18.4838 2.875 16.1769C2.875 13.8701 4.66713 12 6.8779 12C9.08867 12 10.8808 13.8701 10.8808 16.1769Z" fill="#60A5FA"/>
<path d="M15.5029 7.82306C15.5029 10.1299 13.7107 12 11.5 12C9.2892 12 7.49707 10.1299 7.49707 7.82306C7.49707 5.51617 9.2892 3.64612 11.5 3.64612C13.7107 3.64612 15.5029 5.51617 15.5029 7.82306Z" fill="#60A5FA"/>
<path d="M20.1249 16.1769C20.1249 18.4838 18.3328 20.3539 16.122 20.3539C13.9113 20.3539 12.1191 18.4838 12.1191 16.1769C12.1191 13.8701 13.9113 12 16.122 12C18.3328 12 20.1249 13.8701 20.1249 16.1769Z" fill="#60A5FA"/>
</svg>
