<svg width="24" height="24" viewBox="0 0 24 24" fill="none" xmlns="http://www.w3.org/2000/svg">
<path d="M9.17266 20.1428H4.24409C4.01726 20.1428 3.83337 20.3347 3.83337 20.5714C3.83337 20.8081 4.01726 21 4.24409 21H9.17266C9.39949 21 9.58337 20.8081 9.58337 20.5714C9.58337 20.3347 9.39949 20.1428 9.17266 20.1428Z" fill="#F87171"/>
<path d="M9.17259 18.4285H7.52973C7.3029 18.4285 7.11902 18.6204 7.11902 18.8571C7.11902 19.0938 7.3029 19.2856 7.52973 19.2856H9.17259C9.39942 19.2856 9.5833 19.0938 9.5833 18.8571C9.5833 18.6204 9.39942 18.4285 9.17259 18.4285Z" fill="#FBBF24"/>
<path d="M5.88695 18.4285H4.24409C4.01726 18.4285 3.83337 18.6204 3.83337 18.8571C3.83337 19.0938 4.01726 19.2857 4.24409 19.2857H5.88695C6.11378 19.2857 6.29766 19.0938 6.29766 18.8571C6.29766 18.6204 6.11378 18.4285 5.88695 18.4285Z" fill="#2DD4BF"/>
<path d="M9.17266 16.7142H4.24409C4.01726 16.7142 3.83337 16.9061 3.83337 17.1428C3.83337 17.3795 4.01726 17.5714 4.24409 17.5714H9.17266C9.39949 17.5714 9.58337 17.3795 9.58337 17.1428C9.58337 16.9061 9.39949 16.7142 9.17266 16.7142Z" fill="#C084FC"/>
<path d="M14.1012 15.0001H6.70832C6.48149 15.0001 6.29761 15.192 6.29761 15.4286C6.29761 15.6653 6.48149 15.8572 6.70832 15.8572H14.1012C14.328 15.8572 14.5119 15.6653 14.5119 15.4286C14.5119 15.192 14.328 15.0001 14.1012 15.0001Z" fill="#FBBF24"/>
<path d="M5.06552 15H4.24409C4.01726 15 3.83337 15.1919 3.83337 15.4286C3.83337 15.6653 4.01726 15.8572 4.24409 15.8572H5.06552C5.29235 15.8572 5.47623 15.6653 5.47623 15.4286C5.47623 15.1919 5.29235 15 5.06552 15Z" fill="#C084FC"/>
<path d="M16.5656 13.2857H14.1013C13.8744 13.2857 13.6906 13.4776 13.6906 13.7143C13.6906 13.951 13.8744 14.1428 14.1013 14.1428H16.5656C16.7924 14.1428 16.9763 13.951 16.9763 13.7143C16.9763 13.4776 16.7924 13.2857 16.5656 13.2857Z" fill="#C084FC"/>
<path d="M12.4584 13.2857H9.17268C8.94585 13.2857 8.76196 13.4776 8.76196 13.7143C8.76196 13.951 8.94585 14.1428 9.17268 14.1428H12.4584C12.6852 14.1428 12.8691 13.951 12.8691 13.7143C12.8691 13.4776 12.6852 13.2857 12.4584 13.2857Z" fill="#F87171"/>
<path d="M7.5298 13.2857H4.24409C4.01726 13.2857 3.83337 13.4776 3.83337 13.7143C3.83337 13.951 4.01726 14.1429 4.24409 14.1429H7.5298C7.75663 14.1429 7.94052 13.951 7.94052 13.7143C7.94052 13.4776 7.75663 13.2857 7.5298 13.2857Z" fill="#2DD4BF"/>
<path d="M17.3869 11.5714H10.8155C10.5887 11.5714 10.4048 11.7633 10.4048 12C10.4048 12.2367 10.5887 12.4286 10.8155 12.4286H17.3869C17.6138 12.4286 17.7976 12.2367 17.7976 12C17.7976 11.7633 17.6138 11.5714 17.3869 11.5714Z" fill="#2DD4BF"/>
<path d="M9.17261 11.5714H6.70832C6.48149 11.5714 6.29761 11.7633 6.29761 12C6.29761 12.2367 6.48149 12.4286 6.70832 12.4286H9.17261C9.39944 12.4286 9.58332 12.2367 9.58332 12C9.58332 11.7633 9.39944 11.5714 9.17261 11.5714Z" fill="#FBBF24"/>
<path d="M5.06552 11.5714H4.24409C4.01726 11.5714 3.83337 11.7633 3.83337 12C3.83337 12.2367 4.01726 12.4286 4.24409 12.4286H5.06552C5.29235 12.4286 5.47623 12.2367 5.47623 12C5.47623 11.7633 5.29235 11.5714 5.06552 11.5714Z" fill="#F87171"/>
<path d="M18.2084 9.85706H14.1013C13.8744 9.85706 13.6906 10.0489 13.6906 10.2856C13.6906 10.5223 13.8744 10.7142 14.1013 10.7142H18.2084C18.4352 10.7142 18.6191 10.5223 18.6191 10.2856C18.6191 10.0489 18.4352 9.85706 18.2084 9.85706Z" fill="#FBBF24"/>
<path d="M7.5298 9.85712H4.24409C4.01726 9.85712 3.83337 10.049 3.83337 10.2857C3.83337 10.5224 4.01726 10.7143 4.24409 10.7143H7.5298C7.75663 10.7143 7.94052 10.5224 7.94052 10.2857C7.94052 10.049 7.75663 9.85712 7.5298 9.85712Z" fill="#C084FC"/>
<path d="M18.2084 8.1428H14.1013C13.8744 8.1428 13.6906 8.33468 13.6906 8.57137C13.6906 8.80806 13.8744 8.99994 14.1013 8.99994H18.2084C18.4352 8.99994 18.6191 8.80806 18.6191 8.57137C18.6191 8.33468 18.4352 8.1428 18.2084 8.1428Z" fill="#F87171"/>
<path d="M7.5298 8.14281H4.24409C4.01726 8.14281 3.83337 8.33469 3.83337 8.57139C3.83337 8.80808 4.01726 8.99996 4.24409 8.99996H7.5298C7.75663 8.99996 7.94052 8.80808 7.94052 8.57139C7.94052 8.33469 7.75663 8.14281 7.5298 8.14281Z" fill="#FBBF24"/>
<path d="M17.3869 6.42863H16.5655C16.3387 6.42863 16.1548 6.62051 16.1548 6.85721C16.1548 7.0939 16.3387 7.28578 16.5655 7.28578H17.3869C17.6138 7.28578 17.7976 7.0939 17.7976 6.85721C17.7976 6.62051 17.6138 6.42863 17.3869 6.42863Z" fill="#2DD4BF"/>
<path d="M14.9226 6.42863H11.6369C11.4101 6.42863 11.2262 6.62051 11.2262 6.85721C11.2262 7.0939 11.4101 7.28578 11.6369 7.28578H14.9226C15.1495 7.28578 15.3333 7.0939 15.3333 6.85721C15.3333 6.62051 15.1495 6.42863 14.9226 6.42863Z" fill="#C084FC"/>
<path d="M9.99409 6.42861H4.24409C4.01726 6.42861 3.83337 6.62049 3.83337 6.85718C3.83337 7.09388 4.01726 7.28575 4.24409 7.28575H9.99409C10.2209 7.28575 10.4048 7.09388 10.4048 6.85718C10.4048 6.62049 10.2209 6.42861 9.99409 6.42861Z" fill="#2DD4BF"/>
<path d="M16.5656 4.71426H8.35127C8.12443 4.71426 7.94055 4.90613 7.94055 5.14283C7.94055 5.37952 8.12443 5.5714 8.35127 5.5714H16.5656C16.7924 5.5714 16.9763 5.37952 16.9763 5.14283C16.9763 4.90613 16.7924 4.71426 16.5656 4.71426Z" fill="#FBBF24"/>
<path d="M6.70837 4.7143H4.24409C4.01726 4.7143 3.83337 4.90618 3.83337 5.14287C3.83337 5.37957 4.01726 5.57144 4.24409 5.57144H6.70837C6.93521 5.57144 7.11909 5.37957 7.11909 5.14287C7.11909 4.90618 6.93521 4.7143 6.70837 4.7143Z" fill="#F87171"/>
<path d="M14.1012 3H4.24409C4.01726 3 3.83337 3.19188 3.83337 3.42857C3.83337 3.66526 4.01726 3.85714 4.24409 3.85714H14.1012C14.3281 3.85714 14.5119 3.66526 14.5119 3.42857C14.5119 3.19188 14.3281 3 14.1012 3Z" fill="#2DD4BF"/>
</svg>
