<svg width="24" height="24" viewBox="0 0 24 24" fill="none" xmlns="http://www.w3.org/2000/svg">
<path fill-rule="evenodd" clip-rule="evenodd" d="M17.9471 9.21719C17.9476 9.36969 17.948 9.52669 17.955 9.688C17.9659 9.88707 18.0046 10.0924 18.0444 10.3031C18.1137 10.6708 18.1861 11.055 18.1196 11.4519C18.0622 11.841 18.022 12.2301 17.9826 12.6123C17.9397 13.0275 17.8976 13.4345 17.8353 13.8246C17.7906 14.1284 17.5819 14.4049 17.3748 14.6794C17.1668 14.9552 16.9603 15.2289 16.9228 15.5261C16.7283 17.1183 15.2025 17.852 11.6122 17.852V17.9769H11.5972V17.852C8.00696 17.852 6.42126 17.1183 6.21183 15.5261C6.17467 15.2392 5.9566 14.9676 5.73554 14.6924C5.51162 14.4136 5.28463 14.131 5.23946 13.8246C5.17715 13.4345 5.13512 13.0275 5.09224 12.6123C5.05277 12.2301 5.0126 11.841 4.95523 11.4519C4.8888 11.0558 4.96083 10.6786 5.03002 10.3162C5.06991 10.1073 5.10884 9.90338 5.11978 9.70361C5.12794 9.57878 5.13363 9.45705 5.13918 9.33822C5.16416 8.80323 5.1864 8.32714 5.41897 7.89286C6.13703 6.59724 8.02192 5.84797 11.6122 5.84797C15.2025 5.84797 16.9976 6.59724 17.7157 7.87725C17.9446 8.2714 17.9458 8.72038 17.9471 9.21719ZM11.9238 11.5697C11.9878 11.5525 12.0146 11.437 11.9836 11.3118C11.9527 11.1866 11.8757 11.099 11.8117 11.1162C11.7477 11.1335 11.7209 11.2489 11.7519 11.3742C11.7828 11.4994 11.8598 11.5869 11.9238 11.5697ZM11.8156 11.8523C11.697 11.8771 11.6122 11.8947 11.6122 11.9202C11.6206 11.9553 11.6243 12.01 11.6285 12.0734C11.6319 12.1229 11.6355 12.1777 11.6421 12.2324C11.6421 12.2995 11.643 12.3901 11.644 12.4934V12.4934V12.4934V12.4935V12.4935C11.6477 12.8685 11.653 13.4113 11.6236 13.6066C12.2822 13.6305 13.2727 14.5424 13.2727 15.6822V15.7447C13.2578 14.6364 12.0012 13.731 11.5973 13.731C11.1934 13.731 9.93676 14.6364 9.9218 15.7447V15.6822C9.9218 14.5619 10.905 13.6378 11.5636 13.6069C11.5224 13.3718 11.5224 12.577 11.5224 12.2324C11.5224 12.1664 11.5279 12.0832 11.5322 12.0175C11.535 11.9744 11.5374 11.9388 11.5374 11.9202C11.5374 11.8804 10.9309 11.7162 10.75 11.6682C10.9012 11.7072 11.3461 11.8158 11.4327 11.7641C11.5224 11.7017 11.5673 11.5144 11.5673 11.5144C11.5673 11.5144 11.5972 11.7017 11.7169 11.7641C11.8366 11.8422 12.3901 11.6549 12.3901 11.6549C12.2307 11.7657 11.9876 11.8164 11.8156 11.8523ZM10.6997 11.6549C10.6997 11.6549 10.7184 11.66 10.75 11.6682L10.6997 11.6549ZM11.3356 11.3807C11.2989 11.5042 11.218 11.5878 11.1549 11.5674C11.0917 11.5469 11.0703 11.4302 11.107 11.3067C11.1438 11.1832 11.2247 11.0997 11.2878 11.1201C11.351 11.1405 11.3724 11.2572 11.3356 11.3807ZM10.1611 12.7475C10.1611 12.8165 10.1075 12.8724 10.0414 12.8724C9.97535 12.8724 9.92177 12.8165 9.92177 12.7475C9.92177 12.6785 9.97535 12.6226 10.0414 12.6226C10.1075 12.6226 10.1611 12.6785 10.1611 12.7475ZM9.473 13.4968C9.473 13.5658 9.41941 13.6217 9.35332 13.6217C9.28722 13.6217 9.23364 13.5658 9.23364 13.4968C9.23364 13.4279 9.28722 13.372 9.35332 13.372C9.41941 13.372 9.473 13.4279 9.473 13.4968ZM9.12892 12.8724C9.19501 12.8724 9.24859 12.8165 9.24859 12.7476C9.24859 12.6786 9.19501 12.6227 9.12892 12.6227C9.06282 12.6227 9.00924 12.6786 9.00924 12.7476C9.00924 12.8165 9.06282 12.8724 9.12892 12.8724ZM13.0782 12.7476C13.0782 12.8165 13.0246 12.8724 12.9585 12.8724C12.8924 12.8724 12.8389 12.8165 12.8389 12.7476C12.8389 12.6786 12.8924 12.6227 12.9585 12.6227C13.0246 12.6227 13.0782 12.6786 13.0782 12.7476ZM13.6467 13.6217C13.7128 13.6217 13.7663 13.5658 13.7663 13.4968C13.7663 13.4279 13.7128 13.372 13.6467 13.372C13.5806 13.372 13.527 13.4279 13.527 13.4968C13.527 13.5658 13.5806 13.6217 13.6467 13.6217ZM13.9907 12.7475C13.9907 12.8165 13.9372 12.8724 13.8711 12.8724C13.805 12.8724 13.7514 12.8165 13.7514 12.7475C13.7514 12.6785 13.805 12.6226 13.8711 12.6226C13.9372 12.6226 13.9907 12.6785 13.9907 12.7475Z" fill="#FED7AA"/>
<path fill-rule="evenodd" clip-rule="evenodd" d="M17.0126 10.8119C17.0126 11.5706 16.4232 12.1856 15.6961 12.1856C14.9691 12.1856 14.3797 11.5706 14.3797 10.8119C14.3797 10.0533 14.9691 9.43824 15.6961 9.43824C16.4232 9.43824 17.0126 10.0533 17.0126 10.8119ZM15.6961 10.2031C15.6961 10.4014 15.5421 10.5621 15.3521 10.5621C15.162 10.5621 15.008 10.4014 15.008 10.2031C15.008 10.0048 15.162 9.84407 15.3521 9.84407C15.5421 9.84407 15.6961 10.0048 15.6961 10.2031Z" fill="#18181B"/>
<path d="M13.6916 10.7495C13.6916 10.7495 14.8734 11.5924 15.5166 12.4197C16.1599 13.2471 16.1449 13.4032 16.1449 13.4032L15.6812 13.6217C15.6812 13.6217 15.023 12.3261 14.2151 11.8422C13.3924 11.3583 13.3026 10.9524 13.3026 10.9524L13.6916 10.7495Z" fill="#FED7AA"/>
<path fill-rule="evenodd" clip-rule="evenodd" d="M8.76989 10.8119C8.76989 11.5706 8.1805 12.1856 7.45346 12.1856C6.72641 12.1856 6.13702 11.5706 6.13702 10.8119C6.13702 10.0533 6.72641 9.43824 7.45346 9.43824C8.1805 9.43824 8.76989 10.0533 8.76989 10.8119ZM8.14161 10.2031C8.14161 10.4014 7.98757 10.5621 7.79754 10.5621C7.60752 10.5621 7.45347 10.4014 7.45347 10.2031C7.45347 10.0048 7.60752 9.84407 7.79754 9.84407C7.98757 9.84407 8.14161 10.0048 8.14161 10.2031Z" fill="#18181B"/>
<path d="M9.3683 10.7495C9.3683 10.7495 8.1865 11.5924 7.54324 12.4197C6.89999 13.2471 6.91495 13.4032 6.91495 13.4032L7.37869 13.6217C7.37869 13.6217 8.03691 12.3261 8.84472 11.8422C9.65253 11.3583 9.75725 10.9524 9.75725 10.9524L9.3683 10.7495Z" fill="#FED7AA"/>
<path d="M15.2623 6.2538C15.2623 6.2538 16.9976 7.76796 17.5063 9.51627C18.0149 11.2646 17.8055 13.3875 18.1944 13.6529C18.7479 14.0275 19.3762 11.7953 19.5856 11.5612C19.9147 11.1865 21.0068 10.2343 21.0816 10.0626C21.1564 9.89091 18.8676 7.28406 17.8653 6.76893C16.6536 6.17575 15.1576 6.12892 15.2623 6.2538Z" fill="#713F12"/>
<path d="M7.73771 6.2538C7.73771 6.2538 6.00241 7.76796 5.49379 9.51627C4.98517 11.2646 5.1946 13.3875 4.80566 13.6529C4.25216 14.0275 3.62386 11.7953 3.41442 11.5612C3.08532 11.1865 1.99327 10.2343 1.91848 10.0626C1.84368 9.89091 4.13248 7.28406 5.13476 6.76893C6.34648 6.17575 7.84243 6.12892 7.73771 6.2538Z" fill="#713F12"/>
<path fill-rule="evenodd" clip-rule="evenodd" d="M15.0679 12.888C14.5548 12.23 13.8203 11.6038 12.8589 11.2999C12.7581 10.9654 12.2821 10.609 11.6122 10.609C10.9588 10.6209 10.4899 10.9628 10.3737 11.2835C9.38621 11.5809 8.63413 12.2179 8.1117 12.888C7.41723 13.7721 7.41914 14.1583 7.42296 14.9337C7.42326 14.9934 7.42356 15.0554 7.42356 15.1202C7.42356 17.6055 8.05985 17.6682 8.68706 17.73C8.88714 17.7498 9.0863 17.7694 9.26358 17.8675C9.86496 18.1813 10.4857 18.1621 11.118 18.1425H11.118C11.2721 18.1377 11.4269 18.1329 11.5823 18.1329H11.5973C11.7435 18.1329 11.8884 18.1365 12.0319 18.1401C12.6809 18.1561 13.3035 18.1715 13.916 17.8519C14.0938 17.7573 14.2935 17.7425 14.4942 17.7277C15.1208 17.6814 15.756 17.6345 15.756 15.1514L15.7582 15.0282C15.7734 14.2071 15.781 13.7959 15.0679 12.888ZM11.9238 11.5697C11.9878 11.5525 12.0146 11.437 11.9837 11.3118C11.9527 11.1866 11.8757 11.099 11.8117 11.1162C11.7477 11.1335 11.7209 11.2489 11.7519 11.3742C11.7828 11.4994 11.8598 11.5869 11.9238 11.5697ZM11.8157 11.8523C11.697 11.8771 11.6122 11.8947 11.6122 11.9202C11.6206 11.9553 11.6243 12.01 11.6285 12.0734V12.0734C11.6319 12.1229 11.6356 12.1777 11.6421 12.2324C11.6421 12.2995 11.643 12.39 11.644 12.4933L11.644 12.4934V12.4934V12.4934V12.4935C11.6477 12.8685 11.653 13.4113 11.6236 13.6066C12.2822 13.6305 13.2727 14.5424 13.2727 15.6822V15.7447C13.2578 14.6364 12.0012 13.731 11.5973 13.731C11.1934 13.731 9.93678 14.6364 9.92182 15.7447V15.6822C9.92182 14.5619 10.905 13.6378 11.5636 13.6069C11.5224 13.3718 11.5224 12.577 11.5224 12.2324C11.5224 12.1664 11.5279 12.0832 11.5322 12.0175C11.5351 11.9744 11.5374 11.9388 11.5374 11.9202C11.5374 11.8804 10.931 11.7162 10.75 11.6682C10.9012 11.7072 11.3461 11.8158 11.4327 11.7641C11.5224 11.7017 11.5673 11.5144 11.5673 11.5144C11.5673 11.5144 11.5972 11.7017 11.7169 11.7641C11.8366 11.8422 12.3901 11.6549 12.3901 11.6549C12.2308 11.7657 11.9876 11.8164 11.8157 11.8523ZM10.6997 11.6549C10.6997 11.6549 10.7184 11.66 10.75 11.6682L10.6997 11.6549ZM11.3357 11.3807C11.2989 11.5042 11.218 11.5878 11.1549 11.5674C11.0917 11.5469 11.0703 11.4302 11.1071 11.3067C11.1438 11.1832 11.2247 11.0997 11.2878 11.1201C11.351 11.1405 11.3724 11.2572 11.3357 11.3807ZM10.1611 12.7475C10.1611 12.8165 10.1076 12.8724 10.0415 12.8724C9.97537 12.8724 9.92179 12.8165 9.92179 12.7475C9.92179 12.6785 9.97537 12.6226 10.0415 12.6226C10.1076 12.6226 10.1611 12.6785 10.1611 12.7475ZM9.47301 13.4968C9.47301 13.5658 9.41943 13.6217 9.35334 13.6217C9.28724 13.6217 9.23366 13.5658 9.23366 13.4968C9.23366 13.4279 9.28724 13.372 9.35334 13.372C9.41943 13.372 9.47301 13.4279 9.47301 13.4968ZM9.12893 12.8724C9.19503 12.8724 9.24861 12.8165 9.24861 12.7476C9.24861 12.6786 9.19503 12.6227 9.12893 12.6227C9.06284 12.6227 9.00925 12.6786 9.00925 12.7476C9.00925 12.8165 9.06284 12.8724 9.12893 12.8724ZM13.0782 12.7476C13.0782 12.8165 13.0246 12.8724 12.9585 12.8724C12.8925 12.8724 12.8389 12.8165 12.8389 12.7476C12.8389 12.6786 12.8925 12.6227 12.9585 12.6227C13.0246 12.6227 13.0782 12.6786 13.0782 12.7476ZM13.6467 13.6217C13.7128 13.6217 13.7664 13.5658 13.7664 13.4968C13.7664 13.4279 13.7128 13.372 13.6467 13.372C13.5806 13.372 13.527 13.4279 13.527 13.4968C13.527 13.5658 13.5806 13.6217 13.6467 13.6217ZM13.9908 12.7475C13.9908 12.8165 13.9372 12.8724 13.8711 12.8724C13.805 12.8724 13.7514 12.8165 13.7514 12.7475C13.7514 12.6785 13.805 12.6226 13.8711 12.6226C13.9372 12.6226 13.9908 12.6785 13.9908 12.7475Z" fill="#713F12"/>
<path d="M15.3521 10.5621C15.5421 10.5621 15.6961 10.4014 15.6961 10.2031C15.6961 10.0048 15.5421 9.84406 15.3521 9.84406C15.162 9.84406 15.008 10.0048 15.008 10.2031C15.008 10.4014 15.162 10.5621 15.3521 10.5621Z" fill="white"/>
<path d="M7.79756 10.5621C7.98758 10.5621 8.14163 10.4014 8.14163 10.2031C8.14163 10.0048 7.98758 9.84406 7.79756 9.84406C7.60754 9.84406 7.45349 10.0048 7.45349 10.2031C7.45349 10.4014 7.60754 10.5621 7.79756 10.5621Z" fill="white"/>
</svg>
