<svg width="24" height="24" viewBox="0 0 24 24" fill="none" xmlns="http://www.w3.org/2000/svg">
<path fill-rule="evenodd" clip-rule="evenodd" d="M11.7339 2.13594C11.6837 2.05142 11.5952 2 11.5 2C11.4047 2 11.3162 2.05142 11.2661 2.13594L10.7618 2.98558C10.6872 2.99217 10.6129 2.99976 10.5389 3.00833L9.88515 2.2786C9.82014 2.20603 9.72379 2.17368 9.63043 2.19309C9.53706 2.2125 9.45994 2.28089 9.42654 2.37392L9.09092 3.30862C9.01922 3.33031 8.9479 3.35294 8.87697 3.3765L8.09865 2.79273C8.02132 2.73472 7.92073 2.72258 7.83274 2.76063C7.74475 2.79869 7.68189 2.88152 7.66655 2.97961L7.51184 3.969C7.44631 4.0046 7.38127 4.04104 7.31673 4.07831L6.44181 3.66222C6.35507 3.62097 6.25405 3.6295 6.17481 3.68478C6.09557 3.74006 6.04939 3.8342 6.05276 3.9336L6.08688 4.939C6.03053 4.98614 5.97476 5.034 5.91957 5.08256L4.98035 4.85167C4.88759 4.82886 4.79012 4.85778 4.72272 4.9281C4.65533 4.99843 4.62762 5.10013 4.64948 5.19693L4.87076 6.17703C4.82423 6.2346 4.77838 6.29279 4.73322 6.35157L3.76966 6.31597C3.6744 6.31245 3.58418 6.36063 3.53121 6.44332C3.47823 6.52601 3.47005 6.63142 3.50958 6.72193L3.90839 7.635C3.87269 7.7023 3.83779 7.77013 3.8037 7.83846L2.85542 7.99992C2.76141 8.01592 2.68203 8.08152 2.64557 8.17334C2.6091 8.26515 2.62073 8.37011 2.67632 8.45081L3.23584 9.26307C3.21328 9.33703 3.1916 9.41141 3.17083 9.48618L2.27496 9.83643C2.18581 9.87129 2.12027 9.95176 2.10167 10.0492C2.08307 10.1466 2.11407 10.2471 2.18362 10.315L2.88301 10.9972C2.8748 11.0744 2.86753 11.1519 2.86121 11.2297L2.0469 11.7559C1.96591 11.8083 1.91663 11.9006 1.91663 12C1.91663 12.0994 1.96591 12.1917 2.0469 12.2441L2.86123 12.7703C2.86756 12.8481 2.87483 12.9256 2.88304 13.0028L2.18362 13.685C2.11407 13.7529 2.08307 13.8534 2.10167 13.9508C2.12027 14.0482 2.18581 14.1287 2.27496 14.1636L3.17102 14.5139C3.19177 14.5886 3.21343 14.6629 3.23598 14.7367L2.67632 15.5492C2.62073 15.6299 2.6091 15.7349 2.64557 15.8267C2.68203 15.9185 2.76141 15.9841 2.85542 16.0001L3.80414 16.1616C3.83815 16.2298 3.87297 16.2974 3.90858 16.3646L3.50958 17.2781C3.47005 17.3686 3.47823 17.474 3.53121 17.5567C3.58418 17.6394 3.6744 17.6875 3.76966 17.684L4.73386 17.6484C4.77887 17.707 4.82455 17.7649 4.87091 17.8223L4.64948 18.8031C4.62762 18.8999 4.65533 19.0016 4.72272 19.0719C4.79012 19.1422 4.88759 19.1711 4.98035 19.1483L5.92025 18.9173C5.97523 18.9656 6.03078 19.0133 6.08691 19.0603L6.05276 20.0664C6.04939 20.1658 6.09557 20.2599 6.17481 20.3152C6.25405 20.3705 6.35507 20.379 6.44181 20.3378L7.31728 19.9214C7.38161 19.9586 7.44644 19.9949 7.51175 20.0304L7.66655 21.0204C7.68189 21.1185 7.74475 21.2013 7.83274 21.2394C7.92073 21.2774 8.02132 21.2653 8.09865 21.2073L8.87727 20.6233C8.94806 20.6468 9.01924 20.6694 9.0908 20.691L9.42654 21.6261C9.45994 21.7191 9.53706 21.7875 9.63043 21.8069C9.72379 21.8263 9.82014 21.794 9.88515 21.7214L10.539 20.9915C10.613 21.0001 10.6872 21.0077 10.7618 21.0143L11.2661 21.8641C11.3162 21.9486 11.4047 22 11.5 22C11.5952 22 11.6837 21.9486 11.7339 21.8641L12.2382 21.0143C12.3127 21.0077 12.3869 21.0001 12.4609 20.9915L13.1148 21.7214C13.1798 21.794 13.2761 21.8263 13.3695 21.8069C13.4629 21.7875 13.54 21.7191 13.5734 21.6261L13.9091 20.6911C13.9807 20.6694 14.0519 20.6468 14.1227 20.6233L14.9013 21.2073C14.9786 21.2653 15.0792 21.2774 15.1672 21.2394C15.2552 21.2013 15.318 21.1185 15.3334 21.0204L15.4882 20.0304C15.5535 19.9949 15.6183 19.9586 15.6827 19.9214L16.5581 20.3378C16.6448 20.379 16.7459 20.3705 16.8251 20.3152C16.9044 20.2599 16.9505 20.1658 16.9472 20.0664L16.913 19.0603C16.9691 19.0133 17.0247 18.9657 17.0797 18.9173L18.0196 19.1483C18.1123 19.1711 18.2098 19.1422 18.2772 19.0719C18.3446 19.0016 18.3723 18.8999 18.3504 18.8031L18.129 17.8223C18.1754 17.765 18.2211 17.707 18.2661 17.6484L19.2303 17.684C19.3255 17.6875 19.4157 17.6394 19.4687 17.5567C19.5217 17.474 19.5299 17.3686 19.4903 17.2781L19.0914 16.3646C19.127 16.2974 19.1618 16.2298 19.1958 16.1616L20.1445 16.0001C20.2385 15.9841 20.3179 15.9185 20.3544 15.8267C20.3908 15.7349 20.3792 15.6299 20.3236 15.5492L19.764 14.7368C19.7865 14.6629 19.8082 14.5886 19.8289 14.5139L20.725 14.1636C20.8141 14.1287 20.8797 14.0482 20.8982 13.9508C20.9168 13.8534 20.8859 13.7529 20.8163 13.685L20.1169 13.0028C20.1251 12.9256 20.1324 12.8481 20.1387 12.7702L20.953 12.2441C21.034 12.1917 21.0833 12.0994 21.0833 12C21.0833 11.9006 21.034 11.8083 20.953 11.7559L20.1387 11.2298C20.1324 11.1519 20.1251 11.0744 20.1169 10.9972L20.8163 10.315C20.8859 10.2471 20.9168 10.1466 20.8982 10.0492C20.8797 9.95176 20.8141 9.87129 20.725 9.83643L19.829 9.48614C19.8082 9.41142 19.7865 9.3371 19.764 9.26319L20.3236 8.45081C20.3792 8.37011 20.3908 8.26515 20.3544 8.17334C20.3179 8.08152 20.2385 8.01592 20.1445 7.99992L19.1959 7.83841C19.1618 7.77021 19.127 7.70252 19.0914 7.63535L19.4903 6.72193C19.5299 6.63142 19.5217 6.52601 19.4687 6.44332C19.4157 6.36063 19.3255 6.31245 19.2303 6.31597L18.2662 6.35159C18.2211 6.29299 18.1754 6.23498 18.129 6.17758L18.3504 5.19693C18.3723 5.10013 18.3446 4.99843 18.2772 4.9281C18.2098 4.85778 18.1123 4.82886 18.0196 4.85167L17.0798 5.0827C17.0248 5.03429 16.9692 4.98659 16.913 4.9396L16.9472 3.9336C16.9505 3.8342 16.9044 3.74006 16.8251 3.68478C16.7459 3.6295 16.6448 3.62097 16.5581 3.66222L15.6828 4.07851C15.6184 4.04133 15.5535 4.00497 15.4881 3.96946L15.3334 2.97961C15.318 2.88152 15.2552 2.79868 15.1672 2.76063C15.0792 2.72258 14.9786 2.73472 14.9013 2.79273L14.1228 3.37665C14.0519 3.35311 13.9807 3.3305 13.9091 3.30883L13.5734 2.37392C13.54 2.28089 13.4629 2.2125 13.3695 2.19309C13.2761 2.17368 13.1798 2.20603 13.1148 2.2786L12.461 3.00836C12.387 2.99979 12.3127 2.9922 12.2381 2.9856L11.7339 2.13594ZM11.4871 3.75689C11.6354 3.76089 11.7763 3.82537 11.8797 3.93656C11.9832 4.04775 12.0411 4.19687 12.041 4.3521C12.041 4.50996 11.9809 4.66136 11.874 4.77298C11.767 4.88461 11.6219 4.94732 11.4706 4.94732C11.3193 4.94732 11.1743 4.88461 11.0673 4.77298C10.9603 4.66136 10.9002 4.50996 10.9002 4.3521C10.9002 4.27247 10.9155 4.19363 10.9452 4.12027C10.9749 4.04691 11.0184 3.98052 11.0731 3.92501C11.1278 3.86951 11.1927 3.82603 11.2638 3.79715C11.3349 3.76828 11.4109 3.75458 11.4871 3.75689ZM12.793 4.73679C13.7944 4.93251 14.7429 5.35333 15.5728 5.97005C16.4026 6.58676 17.0938 7.38458 17.5985 8.30808L16.9253 9.89277C16.8098 10.1665 16.929 10.488 17.1895 10.6105L18.4843 11.2095C18.5245 11.6319 18.5294 12.0571 18.499 12.4803H17.7782C17.7067 12.4803 17.6773 12.5301 17.6773 12.6028V12.9473C17.6773 13.7588 17.239 13.9368 16.8538 13.9808C16.487 14.0248 16.0816 13.82 16.0303 13.5866C15.8189 12.3474 15.4712 12.061 14.9255 11.6116L14.8858 11.5789C15.5919 11.1119 16.3256 10.421 16.3256 9.49851C16.3256 8.50139 15.6708 7.87363 15.2251 7.5655C14.5978 7.13488 13.9045 7.04875 13.7174 7.04875H6.27087C7.30055 5.84845 8.68075 5.03585 10.1977 4.73679L11.0763 5.69756C11.2744 5.91383 11.6027 5.92339 11.8099 5.71478L12.793 4.73679ZM4.68618 9.14253C4.83459 9.14702 4.97547 9.2117 5.0789 9.32284C5.18233 9.43399 5.24015 9.58283 5.24009 9.73775C5.24009 9.89561 5.17999 10.047 5.07302 10.1586C4.96605 10.2703 4.82096 10.333 4.66968 10.333C4.51839 10.333 4.3733 10.2703 4.26633 10.1586C4.15936 10.047 4.09926 9.89561 4.09926 9.73775C4.09923 9.65811 4.11451 9.57928 4.1442 9.50592C4.1739 9.43256 4.2174 9.36616 4.27212 9.31066C4.32685 9.25516 4.3917 9.21168 4.46282 9.1828C4.53394 9.15392 4.6099 9.14023 4.68618 9.14253ZM18.2863 9.16933C18.4347 9.17381 18.5755 9.23849 18.679 9.34964C18.7824 9.46078 18.8402 9.60962 18.8402 9.76454C18.8402 9.9224 18.7801 10.0738 18.6731 10.1854C18.5661 10.297 18.421 10.3598 18.2698 10.3598C18.1185 10.3598 17.9734 10.297 17.8664 10.1854C17.7594 10.0738 17.6993 9.9224 17.6993 9.76454C17.6993 9.68491 17.7146 9.60607 17.7443 9.53271C17.774 9.45935 17.8175 9.39296 17.8722 9.33745C17.9269 9.28195 17.9918 9.23847 18.0629 9.20959C18.134 9.18072 18.21 9.16702 18.2863 9.16933ZM5.76098 9.26502H6.75508V13.9425H4.74854C4.50073 13.0345 4.4235 12.085 4.52111 11.1464L5.74998 10.576C6.01226 10.4535 6.13148 10.1339 6.01409 9.86024L5.76098 9.26502ZM9.90979 9.31478H12.2776C12.4005 9.31478 13.1415 9.46215 13.1415 10.0421C13.1415 10.5224 12.5729 10.6947 12.1052 10.6947H9.90795L9.90979 9.31478ZM9.90979 12.6755H11.7237C11.8888 12.6755 12.6096 12.7253 12.8389 13.6861C12.8641 13.7901 12.9004 13.9772 12.9414 14.1892C13.0167 14.5778 13.1082 15.0504 13.1782 15.2497C13.2864 15.5942 13.7248 16.2832 14.1925 16.2832H17.1528C16.9544 16.5604 16.7374 16.8227 16.5035 17.0679L15.2985 16.798C15.0178 16.7349 14.7409 16.9224 14.6804 17.2153L14.3942 18.6086C13.4742 19.0435 12.475 19.2661 11.4649 19.2611C10.4548 19.2562 9.45765 19.0238 8.54152 18.5799L8.2554 17.1866C8.19487 16.8937 7.91975 16.7062 7.63913 16.7693L6.45979 17.0334C6.24094 16.7979 6.0375 16.5472 5.85086 16.2832H11.5862C11.6504 16.2832 11.6944 16.2717 11.6944 16.2086V14.0918C11.6944 14.0306 11.6504 14.0172 11.5862 14.0172H9.90795L9.90979 12.6755ZM7.26314 17.5234C7.41154 17.5279 7.55242 17.5926 7.65585 17.7037C7.75928 17.8148 7.81711 17.9637 7.81704 18.1186C7.81704 18.2765 7.75695 18.4279 7.64997 18.5395C7.543 18.6511 7.39791 18.7138 7.24663 18.7138C7.09535 18.7138 6.95026 18.6511 6.84328 18.5395C6.73631 18.4279 6.67621 18.2765 6.67621 18.1186C6.67618 18.039 6.69146 17.9601 6.72116 17.8868C6.75085 17.8134 6.79435 17.747 6.84908 17.6915C6.90381 17.636 6.96865 17.5925 7.03977 17.5637C7.1109 17.5348 7.18685 17.5211 7.26314 17.5234ZM15.7093 17.5502C15.8577 17.5547 15.9986 17.6194 16.102 17.7305C16.2055 17.8416 16.2633 17.9905 16.2632 18.1454C16.2632 18.3033 16.2031 18.4547 16.0961 18.5663C15.9892 18.6779 15.8441 18.7406 15.6928 18.7406C15.5415 18.7406 15.3964 18.6779 15.2895 18.5663C15.1825 18.4547 15.1224 18.3033 15.1224 18.1454C15.1224 18.0658 15.1376 17.9869 15.1673 17.9136C15.197 17.8402 15.2405 17.7738 15.2952 17.7183C15.35 17.6628 15.4148 17.6193 15.4859 17.5905C15.5571 17.5616 15.633 17.5479 15.7093 17.5502Z" fill="#EA580C"/>
</svg>
