<svg width="24" height="24" viewBox="0 0 24 24" fill="none" xmlns="http://www.w3.org/2000/svg">
<path d="M20.0807 5.66759L11.9723 20.7875C11.8049 21.0997 11.3748 21.1015 11.2049 20.7909L2.93579 5.66905C2.75067 5.33052 3.02827 4.92046 3.39614 4.98903L11.5132 6.50202C11.5649 6.51167 11.618 6.51158 11.6697 6.50174L19.617 4.9912C19.9837 4.92151 20.2626 5.32839 20.0807 5.66759Z" fill="#A855F7"/>
<path d="M15.3798 3.00448L9.37937 4.23057C9.28075 4.25072 9.20773 4.33788 9.20178 4.44248L8.83267 10.9433C8.82399 11.0965 8.95884 11.2153 9.10215 11.1808L10.7727 10.7788C10.9291 10.7412 11.0703 10.8847 11.0382 11.0487L10.5418 13.5832C10.5084 13.7538 10.662 13.8996 10.8218 13.849L11.8536 13.5221C12.0136 13.4715 12.1673 13.6177 12.1334 13.7885L11.3447 17.7696C11.2953 18.0187 11.6129 18.1544 11.7454 17.9409L11.8339 17.7983L16.7234 7.62277C16.8052 7.4524 16.6641 7.25813 16.4846 7.29424L14.765 7.64033C14.6034 7.67282 14.4659 7.51588 14.5115 7.35101L15.6339 3.29364C15.6795 3.12849 15.5416 2.97142 15.3798 3.00448Z" fill="#FBBF24"/>
</svg>
