<svg width="24" height="24" viewBox="0 0 24 24" fill="none" xmlns="http://www.w3.org/2000/svg">
<path fill-rule="evenodd" clip-rule="evenodd" d="M5.48578 20.5941C5.31754 20.5735 5.14931 20.4857 4.98107 20.398C4.90596 20.3588 4.84186 20.3158 4.78875 20.2689C4.56989 20.0759 4.53783 19.8179 4.6926 19.4949C4.6926 19.4448 4.71663 19.3946 4.74067 19.3444C4.76471 19.2943 4.78875 19.2441 4.78875 19.1939C4.40412 19.1939 4.21181 18.9932 4.11565 18.6922C3.63487 17.3878 3.73102 16.3845 4.6926 15.3811C4.71836 15.3273 4.74413 15.2807 4.76804 15.2375C4.83338 15.1194 4.88491 15.0263 4.88491 14.8794C4.88491 13.575 5.07722 12.3709 5.94264 11.2672C6.23111 10.8659 6.61574 10.4645 7.09652 10.1635C7.28884 10.0632 7.28884 9.96283 7.19268 9.76216C6.80805 9.26047 6.61574 8.75878 6.51958 8.15675C6.44265 7.7554 6.61189 7.35405 6.78113 6.9527C6.82344 6.85236 6.86575 6.75202 6.90421 6.65168C7.00037 6.55134 7.09652 6.45101 7.19268 6.45101C7.47489 6.37739 7.70533 6.19573 7.92199 6.02495C8.00062 5.96297 8.07744 5.90242 8.15425 5.84898C8.82735 5.14661 9.59661 4.8456 10.5582 4.8456C10.7447 4.8456 10.8408 4.75117 10.8464 4.65392C10.8466 4.65093 10.8467 4.64793 10.8467 4.64493C10.8558 4.6067 10.8658 4.56848 10.8767 4.53026C10.9279 4.35093 10.9982 4.1716 11.0878 3.99227C11.1575 3.85253 11.239 3.71279 11.3321 3.57304C11.3614 3.52898 11.3919 3.48493 11.4236 3.44087L11.7121 3.13986C11.8593 2.98618 12.063 2.95019 12.1935 3.07694C12.1958 3.07917 12.1981 3.08146 12.2003 3.0838C12.2372 3.12199 12.2678 3.17376 12.289 3.24019C12.4861 3.58304 12.6384 3.92588 12.7764 4.2367C12.7802 4.24526 12.784 4.2538 12.7878 4.26232C12.8476 4.39699 12.9048 4.5254 12.9621 4.64493C12.963 4.64676 12.9639 4.64857 12.9647 4.65037C12.9659 4.65277 12.9671 4.65514 12.9683 4.65748C13.0624 4.84556 13.1565 4.84346 13.2506 4.74526C13.592 4.59259 13.7602 4.51735 13.8682 4.57192C13.9732 4.62494 14.0212 4.80049 14.116 5.14661C14.164 5.35688 14.2043 5.56615 14.2368 5.77441C14.2704 5.98904 14.2957 6.2026 14.3127 6.4151C14.4443 8.06282 14.0745 9.64675 13.1544 11.1669C13.1063 11.2672 13.0342 11.3676 12.9621 11.4679C12.89 11.5682 12.8179 11.6686 12.7698 11.7689C12.6736 11.9696 12.6736 12.0699 12.8659 12.2706C13.7314 13.0733 14.3083 14.177 14.5006 15.3811C14.5224 15.5404 14.5393 15.7048 14.5512 15.8721C14.5529 15.8964 14.5546 15.9207 14.5561 15.9451C14.5785 16.305 14.5783 16.6763 14.5554 17.0359C14.5532 17.0694 14.5509 17.1027 14.5484 17.136C14.5367 17.29 14.5208 17.4415 14.5006 17.5885C14.4767 17.6884 14.4647 17.7634 14.4646 17.8182C14.4642 17.9837 14.5724 17.9649 14.7891 17.8895C14.9173 17.8513 15.0455 17.8094 15.1731 17.7639C15.2216 17.7466 15.27 17.7288 15.3183 17.7104C15.5456 17.624 15.7698 17.5259 15.9874 17.4162C16.0026 17.4085 16.0178 17.4008 16.033 17.393C16.1203 17.3481 16.2064 17.3013 16.2912 17.2526C16.3513 17.2181 16.4106 17.1826 16.4692 17.1463C16.5519 17.0949 16.633 17.0416 16.7122 16.9865C16.7947 16.9373 16.8758 16.8881 16.9559 16.8394C17.3653 16.591 17.7509 16.357 18.1834 16.2114C18.357 16.1529 18.5382 16.1087 18.7315 16.0834C18.8315 16.0834 18.92 16.0714 19.0049 16.0598C19.028 16.0567 19.0509 16.0535 19.0737 16.0507C19.1297 16.0437 19.185 16.0385 19.2422 16.0389C19.3226 16.0393 19.4066 16.0507 19.5008 16.0834C19.7893 16.1838 19.9816 16.4848 19.9816 16.7858C19.9816 17.0868 19.7893 17.2875 19.5008 17.3878C19.3468 17.42 19.1952 17.4598 19.0462 17.5066C18.9997 17.5212 18.9535 17.5364 18.9075 17.5523C18.8484 17.5727 18.7898 17.5942 18.7315 17.6167C18.6428 17.6509 18.555 17.6874 18.4682 17.7262C18.1387 17.873 17.8224 18.0509 17.5193 18.2497C17.491 18.2682 17.4628 18.2869 17.4347 18.3058C17.2532 18.4281 17.0765 18.5577 16.9046 18.6922C16.4186 19.0472 15.8835 19.3509 15.3366 19.6033C15.3134 19.614 15.2902 19.6246 15.2671 19.6351C15.0154 19.7491 14.7615 19.8522 14.5091 19.9446C14.247 20.0405 13.9864 20.1247 13.7314 20.1973C13.6352 20.1973 13.4429 20.2976 13.3467 20.398C13.046 20.6334 12.7452 20.6847 12.3985 20.7438C12.3018 20.7603 12.2015 20.7774 12.0967 20.7993C12.0148 20.8071 11.9336 20.8149 11.8528 20.8226C10.8896 20.9146 9.99554 21 9.01967 21C8.95163 21 8.88361 21 8.81431 20.9987C8.78768 21.0213 8.7616 21.0413 8.73664 21.0587L8.73117 21.0501C8.7408 21.0325 8.75027 21.015 8.75957 20.9974C8.73851 20.9967 8.71731 20.9959 8.69593 20.995C8.50552 20.9864 8.30098 20.963 8.05809 20.8997C7.9821 20.8732 7.90612 20.8398 7.83364 20.7995C7.77761 20.7683 7.72367 20.7329 7.67347 20.6934C7.60042 20.6359 7.53527 20.5696 7.483 20.4944C7.44126 20.4345 7.40775 20.3689 7.38499 20.2976C7.31631 20.011 7.34575 19.7755 7.4733 19.5912C7.48064 19.5806 7.4883 19.5701 7.49629 19.5599C7.54384 19.4988 7.6029 19.4437 7.67347 19.3946C7.77423 19.3946 7.8486 19.367 7.9104 19.3408C7.91769 19.3377 7.92481 19.3346 7.93177 19.3316C7.97844 19.3115 8.01826 19.2943 8.05809 19.2943C7.91731 19.2208 7.82806 19.1473 7.75261 19.0345C7.725 18.9932 7.69923 18.9467 7.67347 18.8929C7.57731 18.7926 7.57731 18.7926 7.48115 18.8929C7.46132 18.9343 7.44559 18.9757 7.43225 19.017C7.43203 19.0177 7.43181 19.0184 7.43159 19.0191C7.41292 19.0774 7.39896 19.1356 7.38499 19.1939C7.36095 19.2943 7.33692 19.3946 7.28884 19.4949C7.15136 19.9731 6.9702 20.2918 6.71413 20.4726C6.68046 20.4964 6.64548 20.5178 6.60915 20.5369C6.57718 20.5537 6.54415 20.5686 6.51002 20.5818C6.36444 20.6381 6.19875 20.6621 6.00919 20.6565C5.87181 20.6525 5.72189 20.6328 5.55801 20.5986C5.53393 20.5986 5.50986 20.5971 5.48578 20.5941ZM5.31179 22.5852C4.73835 22.5236 4.2727 22.2683 4.1479 22.1998C4.13748 22.1941 4.12944 22.1897 4.12391 22.1868C3.66734 21.9486 3.06769 21.4854 2.80217 20.6542C2.74446 20.4735 2.70937 20.2969 2.69214 20.1262C2.50998 19.869 2.39165 19.6051 2.3141 19.3757C2.01186 18.5448 1.8153 17.6035 1.97148 16.6024C2.10499 15.7466 2.46974 15.0121 2.97725 14.3772C3.02904 12.9928 3.32661 11.4627 4.43382 10.0333C4.565 9.85322 4.712 9.67036 4.87538 9.49011C4.76635 9.17199 4.68798 8.84646 4.63319 8.51153C4.49975 7.7663 4.66507 7.12986 4.79466 6.74352C4.86236 6.54165 4.93853 6.35738 4.99349 6.22631C5.00845 6.19061 5.02179 6.15895 5.03387 6.13028C5.07326 6.03678 5.09927 5.97507 5.12463 5.9089C5.22103 5.65742 5.36538 5.42899 5.54892 5.23747C5.55056 5.23576 5.55282 5.23337 5.55568 5.23035C5.59313 5.19081 5.73276 5.04338 5.89844 4.91372C6.00819 4.82783 6.26446 4.63839 6.63603 4.53043C6.67033 4.50499 6.71034 4.47351 6.78141 4.41751L6.78526 4.41448C6.82284 4.38486 6.87284 4.34547 6.93021 4.30203C7.67833 3.56903 8.52401 3.13632 9.44789 2.95163C9.57897 2.70381 9.72782 2.46688 9.89026 2.24087C9.94468 2.16516 10.0042 2.09357 10.0683 2.02665L10.3568 1.72564C10.7641 1.3006 11.4335 0.919657 12.2483 1.01412C13.0829 1.1109 13.6967 1.66204 14.0029 2.33668C14.0469 2.41705 14.0905 2.4999 14.133 2.5834C14.2948 2.61099 14.4664 2.66059 14.642 2.74205C15.4021 3.09457 15.6854 3.78046 15.7635 3.97603C15.8467 4.1844 15.9124 4.42613 15.9493 4.56171C15.9527 4.57451 15.956 4.58638 15.9589 4.59717C15.9667 4.62574 15.9739 4.65448 15.9805 4.68337C16.5406 7.13783 16.2527 9.5394 15.0349 11.7819C15.7014 12.6904 16.1567 13.7556 16.3627 14.8855C16.9022 14.572 17.6333 14.2111 18.4938 14.0989C18.5635 14.0898 18.6337 14.0847 18.7039 14.0837C18.7046 14.0836 18.7054 14.0835 18.7063 14.0834C18.7191 14.0818 18.7294 14.0804 18.7484 14.0778C18.7567 14.0766 18.7667 14.0753 18.7792 14.0736C18.8131 14.069 18.8661 14.0619 18.9254 14.0557C19.2017 14.0269 19.617 14.0157 20.1069 14.1861C21.2189 14.5728 21.8982 15.6697 21.8982 16.7858C21.8982 18.237 20.8782 19.0169 20.1069 19.2852C20.0315 19.3114 19.9546 19.3327 19.8767 19.349C19.2962 19.4701 18.694 19.7918 18.0546 20.2922C18.0378 20.3053 18.0208 20.3182 18.0037 20.3307C16.8672 21.1608 15.5596 21.7341 14.3795 22.085C13.6359 22.6084 12.7414 22.7249 12.52 22.7538C12.4958 22.7569 12.4797 22.759 12.4726 22.7605C12.4057 22.7744 12.3381 22.7847 12.2702 22.7911C12.1857 22.7991 12.1009 22.8072 12.016 22.8154C11.0657 22.9063 10.0873 23 9.01967 23L8.99739 23C8.6904 23.0001 8.20777 23.0003 7.59323 22.8399C7.54564 22.8275 7.49853 22.8132 7.45199 22.797C7.29894 22.7438 7.10788 22.6634 6.90453 22.5475C6.32898 22.7062 5.76823 22.6686 5.31179 22.5852ZM8.67339 21.1759C8.67548 21.175 8.67505 21.1752 8.67257 21.1762L8.67339 21.1759ZM14.6662 3.72878C14.6699 3.73666 14.6733 3.74391 14.6764 3.7505L14.6764 3.75037C14.6759 3.74933 14.6726 3.74177 14.6662 3.72878ZM6.58397 4.56672C6.58398 4.56669 6.58487 4.56614 6.5866 4.56514C6.58482 4.56625 6.58395 4.56675 6.58397 4.56672ZM6.2275 8.3809C6.23145 8.3788 6.2354 8.37672 6.23936 8.37465L6.23811 8.37531C6.23562 8.37661 6.23205 8.37846 6.2275 8.3809Z" fill="#60A5FA"/>
</svg>
