<svg width="24" height="24" viewBox="0 0 24 24" fill="none" xmlns="http://www.w3.org/2000/svg">
    <g clip-path="url(#clip0_104_758)">
        <path
            d="M6 14.0001L7.5 11.1001C7.66307 10.7762 7.91112 10.5028 8.21761 10.309C8.5241 10.1153 8.8775 10.0085 9.24 10.0001H20M20 10.0001C20.3055 9.99956 20.6071 10.069 20.8816 10.2032C21.1561 10.3373 21.3963 10.5326 21.5836 10.774C21.7709 11.0153 21.9004 11.2964 21.9622 11.5956C21.9622 11.5956 22.0764 11.7042 22 12M20 10.0001V8.0001C20 7.46966 19.7893 6.96096 19.4142 6.58588C19.0391 6.21081 18.5304 6.0001 18 6.0001H12.07C11.7389 6.00004 11.413 5.91778 11.1215 5.7607C10.83 5.60362 10.5821 5.37663 10.4 5.1001L9.59 3.9001C9.40604 3.62072 9.15495 3.39195 8.8597 3.23472C8.56445 3.07748 8.23449 2.99682 7.9 3.0001H4C3.46957 3.0001 2.96086 3.21081 2.58579 3.58588C2.21071 3.96096 2 4.46966 2 5.0001V18.0001C2 18.5305 2.21071 19.0392 2.58579 19.4143C2.96086 19.7894 3.46957 20.0001 4 20.0001H12"
            stroke="currentColor" stroke-width="2" stroke-linecap="round" stroke-linejoin="round" />
        <path fill-rule="evenodd" clip-rule="evenodd"
            d="M21.5659 15.756L20.9213 16.6344C21.5801 17.3847 22 18.5121 22 19.7706V20.5572C22 20.8018 21.8544 21 21.6749 21H16.384C16.2541 21 16 21 16 20.5572V19.7708C16 18.5121 16.4199 17.3847 17.0788 16.6344L16.4341 15.756C16.3072 15.5831 16.3072 15.3027 16.4341 15.1297C16.561 14.9568 16.7668 14.9568 16.8938 15.1297L17.6314 16.1344C18.042 15.8465 18.5074 15.6838 19 15.6838C19.4926 15.6838 19.958 15.8465 20.3686 16.1344L21.1062 15.1297C21.2332 14.9568 21.439 14.9568 21.5659 15.1297C21.6928 15.3027 21.6928 15.5831 21.5659 15.756ZM16.6501 19.7706V20.1143H21.3499V19.7706C21.3499 18.0055 20.2957 16.5695 19 16.5695C17.7043 16.5695 16.6501 18.0055 16.6501 19.7706ZM18.1333 18.8672C18.2859 18.8672 18.4096 18.6988 18.4096 18.4909C18.4096 18.2828 18.2859 18.1143 18.1333 18.1143C17.9806 18.1143 17.8569 18.2828 17.8569 18.4909C17.8569 18.6988 17.9806 18.8672 18.1333 18.8672ZM20.1866 18.4305C20.1866 18.6386 20.0628 18.8071 19.9103 18.8071C19.7576 18.8071 19.6338 18.6386 19.6338 18.4305C19.6338 18.2226 19.7576 18.0542 19.9103 18.0542C20.0628 18.0542 20.1866 18.2226 20.1866 18.4305Z"
            fill="#4ADE80" />
        <path
            d="M20.8657 16.6877L20.8043 16.605C20.7871 16.6283 20.7779 16.6602 20.779 16.6929C20.7801 16.7258 20.7913 16.7564 20.81 16.7775L20.8657 16.6877ZM17.1344 16.6877L17.19 16.7775C17.2088 16.7564 17.22 16.7258 17.2211 16.6929C17.2222 16.6602 17.213 16.6282 17.1958 16.605L17.1344 16.6877ZM17.671 16.2072L17.6096 16.2899C17.6363 16.3258 17.6772 16.3345 17.7107 16.3112L17.671 16.2072ZM20.329 16.2072L20.2893 16.3112C20.3228 16.3345 20.3637 16.3258 20.3904 16.2899L20.329 16.2072ZM16.7181 20.0318H16.6313C16.6313 20.0964 16.6702 20.1488 16.7181 20.1488V20.0318ZM21.2819 20.0318V20.1488C21.3298 20.1488 21.3687 20.0964 21.3687 20.0318H21.2819ZM20.927 16.7705L21.5531 15.9263L21.4304 15.7609L20.8043 16.605L20.927 16.7705ZM22 19.7016C22 18.4559 21.5799 17.3402 20.9214 16.5979L20.81 16.7775C21.431 17.4773 21.8264 18.5284 21.8264 19.7016H22ZM22 20.4575V19.7016H21.8264V20.4575H22ZM21.5975 21C21.8197 21 22 20.7572 22 20.4575H21.8264C21.8264 20.6279 21.7239 20.766 21.5975 20.766V21ZM16.4597 21H21.5975V20.766H16.4597V21ZM16 20.4575C16 20.5789 16.0176 20.6797 16.0518 20.7611C16.0863 20.8433 16.1346 20.8984 16.1866 20.9341C16.2855 21.002 16.3999 21 16.4597 21V20.766C16.3933 20.766 16.3213 20.7641 16.2653 20.7256C16.2398 20.7081 16.2186 20.6833 16.2028 20.6459C16.1867 20.6075 16.1736 20.5487 16.1736 20.4575H16ZM16 19.7018V20.4575H16.1736V19.7018H16ZM17.0788 16.5979C16.4201 17.3402 16 18.4559 16 19.7018H16.1736C16.1736 18.5284 16.569 17.4773 17.19 16.7775L17.0788 16.5979ZM16.4469 15.9263L17.0731 16.7705L17.1958 16.605L16.5696 15.7609L16.4469 15.9263ZM16.4469 15.1589C16.2899 15.3708 16.2898 15.7145 16.4469 15.9263L16.5696 15.7609C16.4803 15.6404 16.4803 15.445 16.5697 15.3243L16.4469 15.1589ZM17.0162 15.1589C16.8589 14.947 16.6041 14.947 16.4469 15.1589L16.5697 15.3243C16.6591 15.2038 16.804 15.2038 16.8934 15.3244L17.0162 15.1589ZM17.7323 16.1245L17.0162 15.1589L16.8934 15.3244L17.6096 16.2899L17.7323 16.1245ZM19 15.6571C18.5074 15.6571 18.0419 15.8182 17.6313 16.1032L17.7107 16.3112C18.0974 16.0428 18.5358 15.8911 19 15.8911V15.6571ZM20.3687 16.1032C19.958 15.8182 19.4926 15.6571 19 15.6571V15.8911C19.4642 15.8911 19.9026 16.0428 20.2893 16.3112L20.3687 16.1032ZM20.9839 15.1589L20.2677 16.1245L20.3904 16.2899L21.1066 15.3243L20.9839 15.1589ZM21.5531 15.159C21.3959 14.9471 21.1411 14.9471 20.9839 15.1589L21.1066 15.3243C21.196 15.2038 21.341 15.2038 21.4304 15.3243L21.5531 15.159ZM21.5531 15.9263C21.7102 15.7145 21.7102 15.3709 21.5531 15.159L21.4304 15.3243C21.5198 15.445 21.5197 15.6404 21.4304 15.7609L21.5531 15.9263ZM16.8049 20.0318V19.7016H16.6313V20.0318H16.8049ZM21.2819 19.9148H16.7181V20.1488H21.2819V19.9148ZM21.1951 19.7016V20.0318H21.3687V19.7016H21.1951ZM19 16.7423C20.2103 16.7423 21.1951 18.0699 21.1951 19.7016H21.3687C21.3687 17.9407 20.3061 16.5083 19 16.5083V16.7423ZM16.8049 19.7016C16.8049 18.0699 17.7897 16.7423 19 16.7423V16.5083C17.6939 16.5083 16.6313 17.9407 16.6313 19.7016H16.8049ZM18.3399 18.4718C18.3399 18.6069 18.2587 18.7164 18.1584 18.7164V18.9504C18.3545 18.9504 18.5134 18.7361 18.5134 18.4718H18.3399ZM18.1584 18.2269C18.2587 18.2269 18.3399 18.3364 18.3399 18.4718H18.5134C18.5134 18.2072 18.3545 17.9929 18.1584 17.9929V18.2269ZM17.9768 18.4718C17.9768 18.3364 18.058 18.2269 18.1584 18.2269V17.9929C17.9621 17.9929 17.8032 18.2072 17.8032 18.4718H17.9768ZM18.1584 18.7164C18.058 18.7164 17.9768 18.6069 17.9768 18.4718H17.8032C17.8032 18.7361 17.9622 18.9504 18.1584 18.9504V18.7164ZM19.8839 18.8926C20.08 18.8926 20.2391 18.6784 20.2391 18.4137H20.0655C20.0655 18.549 19.9842 18.6586 19.8839 18.6586V18.8926ZM19.5287 18.4137C19.5287 18.6784 19.6878 18.8926 19.8839 18.8926V18.6586C19.7836 18.6586 19.7023 18.549 19.7023 18.4137H19.5287ZM19.8839 17.9351C19.6878 17.9351 19.5287 18.1493 19.5287 18.4137H19.7023C19.7023 18.2786 19.7836 18.1691 19.8839 18.1691V17.9351ZM20.2391 18.4137C20.2391 18.1493 20.08 17.9351 19.8839 17.9351V18.1691C19.9842 18.1691 20.0655 18.2786 20.0655 18.4137H20.2391Z"
            fill="#4ADE80" />
    </g>
    <defs>
        <clipPath id="clip0_104_758">
            <rect width="24" height="24" fill="white" />
        </clipPath>
    </defs>
</svg>