<svg width="24" height="24" viewBox="0 0 24 24" fill="none" xmlns="http://www.w3.org/2000/svg">
    <g clip-path="url(#clip0_104_745)">

        <path fill-rule="evenodd" clip-rule="evenodd"
            d="M16.75 15C16.3358 15 16 15.3358 16 15.75V16.9167C16 17.3309 16.3358 17.6667 16.75 17.6667H17.9167C18.3308 17.6667 18.6667 17.3309 18.6667 16.9167V15.75C18.6667 15.3358 18.3308 15 17.9167 15H16.75ZM16.75 18.3333C16.3358 18.3333 16 18.6692 16 19.0833V20.25C16 20.6642 16.3358 21 16.75 21H17.9167C18.3308 21 18.6667 20.6642 18.6667 20.25V19.0833C18.6667 18.6692 18.3308 18.3333 17.9167 18.3333H16.75ZM19.3333 15.75C19.3333 15.3358 19.6692 15 20.0833 15H21.25C21.6642 15 22 15.3358 22 15.75V16.9167C22 17.3309 21.6642 17.6667 21.25 17.6667H20.0833C19.6692 17.6667 19.3333 17.3309 19.3333 16.9167V15.75ZM20.0833 18.3333C19.6692 18.3333 19.3333 18.6692 19.3333 19.0833V20.25C19.3333 20.6642 19.6692 21 20.0833 21H21.25C21.6642 21 22 20.6642 22 20.25V19.0833C22 18.6692 21.6642 18.3333 21.25 18.3333H20.0833Z"
            fill="#F87171" />
        <path
            d="M6 14.0001L7.5 11.1001C7.66307 10.7762 7.91112 10.5028 8.21761 10.309C8.5241 10.1153 8.8775 10.0085 9.24 10.0001H20M20 10.0001C20.3055 9.99956 20.6071 10.069 20.8816 10.2032C21.1561 10.3373 21.3963 10.5326 21.5836 10.774C21.7709 11.0153 21.9004 11.2964 21.9622 11.5956C21.9622 11.5956 22.0764 11.7042 22 12M20 10.0001V8.0001C20 7.46966 19.7893 6.96096 19.4142 6.58588C19.0391 6.21081 18.5304 6.0001 18 6.0001H12.07C11.7389 6.00004 11.413 5.91778 11.1215 5.7607C10.83 5.60362 10.5821 5.37663 10.4 5.1001L9.59 3.9001C9.40604 3.62072 9.15495 3.39195 8.8597 3.23472C8.56445 3.07748 8.23449 2.99682 7.9 3.0001H4C3.46957 3.0001 2.96086 3.21081 2.58579 3.58588C2.21071 3.96096 2 4.46966 2 5.0001V18.0001C2 18.5305 2.21071 19.0392 2.58579 19.4143C2.96086 19.7894 3.46957 20.0001 4 20.0001H12"
            stroke="currentColor" stroke-width="2" stroke-linecap="round" stroke-linejoin="round" />
    </g>
    <defs>
        <clipPath id="clip0_104_745">
            <rect width="24" height="24" fill="white" />
        </clipPath>
    </defs>
</svg>