<svg width="24" height="24" viewBox="0 0 24 24" fill="none" xmlns="http://www.w3.org/2000/svg">
    <g clip-path="url(#clip0_104_750)">
        <path
            d="M20.5 21C21.3284 21 22 20.3284 22 19.5C22 18.6716 21.3284 18 20.5 18C19.6716 18 19 18.6716 19 19.5C19 20.3284 19.6716 21 20.5 21Z"
            fill="#2563EB" />
        <path
            d="M18.25 15H16.75C16.3358 15 16 15.3358 16 15.75V17.25C16 17.6642 16.3358 18 16.75 18H18.25C18.6642 18 19 17.6642 19 17.25V15.75C19 15.3358 18.6642 15 18.25 15Z"
            fill="#0D9488" />
        <path d="M17 19L18 21H16L17 19Z" fill="#22D3EE" />
        <path
            d="M20.5701 15.2993C20.7178 14.9002 21.2822 14.9002 21.4299 15.2993C21.4763 15.4248 21.5752 15.5237 21.7007 15.5701C22.0998 15.7178 22.0998 16.2822 21.7007 16.4299C21.5752 16.4763 21.4763 16.5752 21.4299 16.7007C21.2822 17.0998 20.7178 17.0998 20.5701 16.7007C20.5237 16.5752 20.4248 16.4763 20.2993 16.4299C19.9002 16.2822 19.9002 15.7178 20.2993 15.5701C20.4248 15.5237 20.5237 15.4248 20.5701 15.2993Z"
            fill="#C084FC" />
        <path
            d="M6 14.0001L7.5 11.1001C7.66307 10.7762 7.91112 10.5028 8.21761 10.309C8.5241 10.1153 8.8775 10.0085 9.24 10.0001H20M20 10.0001C20.3055 9.99956 20.6071 10.069 20.8816 10.2032C21.1561 10.3373 21.3963 10.5326 21.5836 10.774C21.7709 11.0153 21.9004 11.2964 21.9622 11.5956C21.9622 11.5956 22.0764 11.7042 22 12M20 10.0001V8.0001C20 7.46966 19.7893 6.96096 19.4142 6.58588C19.0391 6.21081 18.5304 6.0001 18 6.0001H12.07C11.7389 6.00004 11.413 5.91778 11.1215 5.7607C10.83 5.60362 10.5821 5.37663 10.4 5.1001L9.59 3.9001C9.40604 3.62072 9.15495 3.39195 8.8597 3.23472C8.56445 3.07748 8.23449 2.99682 7.9 3.0001H4C3.46957 3.0001 2.96086 3.21081 2.58579 3.58588C2.21071 3.96096 2 4.46966 2 5.0001V18.0001C2 18.5305 2.21071 19.0392 2.58579 19.4143C2.96086 19.7894 3.46957 20.0001 4 20.0001H12"
            stroke="currentColor" stroke-width="2" stroke-linecap="round" stroke-linejoin="round" />
    </g>
    <defs>
        <clipPath id="clip0_104_750">
            <rect width="24" height="24" fill="white" />
        </clipPath>
    </defs>
</svg>