<svg width="24" height="24" viewBox="0 0 24 24" fill="none" xmlns="http://www.w3.org/2000/svg">
    <g clip-path="url(#clip0_104_848)">

        <path
            d="M17.1816 15.9363C17.3593 16.5747 16.9899 17.2383 16.3682 17.3979L16.0385 17.4825C16.0131 17.651 16 17.8239 16 18C16 18.1843 16.0144 18.3649 16.0421 18.5407L16.3465 18.6168C16.9745 18.7737 17.3477 19.4442 17.1649 20.0869L17.0597 20.4565C17.3077 20.6823 17.5901 20.8657 17.8974 20.9961L18.1759 20.6924C18.6209 20.2069 19.3671 20.207 19.8121 20.6927L20.0935 21C20.4003 20.871 20.6825 20.6893 20.9304 20.4655L20.8187 20.0638C20.641 19.4253 21.0103 18.7617 21.6321 18.6021L21.9615 18.5175C21.9869 18.349 22 18.1762 22 18C22 17.8157 21.9856 17.6351 21.9579 17.4592L21.6537 17.3832C21.0258 17.2263 20.6526 16.5559 20.8354 15.9131L20.9404 15.5437C20.6926 15.3179 20.4101 15.1345 20.1027 15.004L19.8245 15.3076C19.3794 15.7932 18.6331 15.793 18.1882 15.3073L17.9067 15C17.5999 15.1289 17.3177 15.3105 17.0698 15.5345L17.1816 15.9363ZM19 18.8784C18.5481 18.8784 18.1818 18.4851 18.1818 18C18.1818 17.5149 18.5481 17.1217 19 17.1217C19.4519 17.1217 19.8182 17.5149 19.8182 18C19.8182 18.4851 19.4519 18.8784 19 18.8784Z"
            fill="#0EA5E9" />
        <path
            d="M6 14.0001L7.5 11.1001C7.66307 10.7762 7.91112 10.5028 8.21761 10.309C8.5241 10.1153 8.8775 10.0085 9.24 10.0001H20M20 10.0001C20.3055 9.99956 20.6071 10.069 20.8816 10.2032C21.1561 10.3373 21.3963 10.5326 21.5836 10.774C21.7709 11.0153 21.9004 11.2964 21.9622 11.5956C21.9622 11.5956 22.0764 11.7042 22 12M20 10.0001V8.0001C20 7.46966 19.7893 6.96096 19.4142 6.58588C19.0391 6.21081 18.5304 6.0001 18 6.0001H12.07C11.7389 6.00004 11.413 5.91778 11.1215 5.7607C10.83 5.60362 10.5821 5.37663 10.4 5.1001L9.59 3.9001C9.40604 3.62072 9.15495 3.39195 8.8597 3.23472C8.56445 3.07748 8.23449 2.99682 7.9 3.0001H4C3.46957 3.0001 2.96086 3.21081 2.58579 3.58588C2.21071 3.96096 2 4.46966 2 5.0001V18.0001C2 18.5305 2.21071 19.0392 2.58579 19.4143C2.96086 19.7894 3.46957 20.0001 4 20.0001H12"
            stroke="currentColor" stroke-width="2" stroke-linecap="round" stroke-linejoin="round" />
    </g>
    <defs>
        <clipPath id="clip0_104_848">
            <rect width="24" height="24" fill="white" />
        </clipPath>
    </defs>
</svg>