<svg width="24" height="24" viewBox="0 0 24 24" fill="none" xmlns="http://www.w3.org/2000/svg">
    <g clip-path="url(#clip0_104_842)">

        <path
            d="M19 17C19.4822 17 19.9362 16.9252 20.2836 16.7911C20.4562 16.7244 20.6219 16.6358 20.7507 16.5182C20.8801 16.4001 21 16.2253 21 16C21 15.7747 20.8801 15.5999 20.7507 15.4818C20.6219 15.3642 20.4562 15.2756 20.2836 15.2089C19.9362 15.0748 19.4822 15 19 15C18.5178 15 18.0638 15.0748 17.7163 15.2089C17.5437 15.2756 17.3781 15.3642 17.2493 15.4818C17.1199 15.5999 17 15.7747 17 16C17 16.2253 17.1199 16.4001 17.2493 16.5182C17.3781 16.6358 17.5437 16.7244 17.7163 16.7911C18.0638 16.9252 18.5178 17 19 17Z"
            stroke="#F472B6" stroke-width="1.12188" />
        <path
            d="M17 19.2461V16L17.3332 16.6718L17.51 17.1432L18.9127 17.2027L20.8622 16.4897L21 16V19.2461C21 19.6624 20.6328 20 20.1799 20H17.8201C17.3672 20 17 19.6624 17 19.2461Z"
            fill="#F472B6" stroke="#F472B6" stroke-width="1.12188" stroke-linejoin="round" />
        <path
            d="M6 14.0001L7.5 11.1001C7.66307 10.7762 7.91112 10.5028 8.21761 10.309C8.5241 10.1153 8.8775 10.0085 9.24 10.0001H20M20 10.0001C20.3055 9.99956 20.6071 10.069 20.8816 10.2032C21.1561 10.3373 21.3963 10.5326 21.5836 10.774C21.7709 11.0153 21.9004 11.2964 21.9622 11.5956C21.9622 11.5956 22.0764 11.7042 22 12M20 10.0001V8.0001C20 7.46966 19.7893 6.96096 19.4142 6.58588C19.0391 6.21081 18.5304 6.0001 18 6.0001H12.07C11.7389 6.00004 11.413 5.91778 11.1215 5.7607C10.83 5.60362 10.5821 5.37663 10.4 5.1001L9.59 3.9001C9.40604 3.62072 9.15495 3.39195 8.8597 3.23472C8.56445 3.07748 8.23449 2.99682 7.9 3.0001H4C3.46957 3.0001 2.96086 3.21081 2.58579 3.58588C2.21071 3.96096 2 4.46966 2 5.0001V18.0001C2 18.5305 2.21071 19.0392 2.58579 19.4143C2.96086 19.7894 3.46957 20.0001 4 20.0001H12"
            stroke="currentColor" stroke-width="2" stroke-linecap="round" stroke-linejoin="round" />
    </g>
    <defs>
        <clipPath id="clip0_104_842">
            <rect width="24" height="24" fill="white" />
        </clipPath>
    </defs>
</svg>