<svg width="24" height="24" viewBox="0 0 24 24" fill="none" xmlns="http://www.w3.org/2000/svg">
    <g clip-path="url(#clip0_104_808)">

        <path
            d="M17.2596 17.493C17.3385 17.3454 17.2901 17.1583 17.1517 17.0754C17.0137 16.9927 16.8385 17.0448 16.7599 17.1919L16.0378 18.5431C15.959 18.6907 16.0074 18.8778 16.1458 18.9607C16.2837 19.0434 16.459 18.9913 16.5376 18.8442L17.2596 17.493ZM19.0665 16.4568C19.1453 16.3093 19.0969 16.1222 18.9585 16.0392C18.8205 15.9566 18.6453 16.0087 18.5667 16.1557L17.8446 17.507C17.7658 17.6546 17.8142 17.8417 17.9526 17.9247C18.0906 18.0073 18.2658 17.9552 18.3444 17.8081L19.0665 16.4568ZM21.9622 16.4569C22.041 16.3094 21.9926 16.1222 21.8542 16.0393C21.7163 15.9567 21.541 16.0088 21.4624 16.1558L20.7404 17.5071C20.6615 17.6546 20.7099 17.8418 20.8483 17.9247C20.9863 18.0073 21.1615 17.9552 21.2401 17.8082L21.9622 16.4569ZM20.155 17.493C20.2339 17.3454 20.1855 17.1583 20.047 17.0754C19.9091 16.9927 19.7338 17.0448 19.6552 17.1919L18.9332 18.5431C18.8543 18.6907 18.9027 18.8778 19.0411 18.9607C19.1791 19.0434 19.3544 18.9913 19.4329 18.8442L20.155 17.493Z"
            fill="#4ADE80" stroke="#4ADE80" stroke-width="0.25" />
        <path
            d="M6 14.0001L7.5 11.1001C7.66307 10.7762 7.91112 10.5028 8.21761 10.309C8.5241 10.1153 8.8775 10.0085 9.24 10.0001H20M20 10.0001C20.3055 9.99956 20.6071 10.069 20.8816 10.2032C21.1561 10.3373 21.3963 10.5326 21.5836 10.774C21.7709 11.0153 21.9004 11.2964 21.9622 11.5956C21.9622 11.5956 22.0764 11.7042 22 12M20 10.0001V8.0001C20 7.46966 19.7893 6.96096 19.4142 6.58588C19.0391 6.21081 18.5304 6.0001 18 6.0001H12.07C11.7389 6.00004 11.413 5.91778 11.1215 5.7607C10.83 5.60362 10.5821 5.37663 10.4 5.1001L9.59 3.9001C9.40604 3.62072 9.15495 3.39195 8.8597 3.23472C8.56445 3.07748 8.23449 2.99682 7.9 3.0001H4C3.46957 3.0001 2.96086 3.21081 2.58579 3.58588C2.21071 3.96096 2 4.46966 2 5.0001V18.0001C2 18.5305 2.21071 19.0392 2.58579 19.4143C2.96086 19.7894 3.46957 20.0001 4 20.0001H12"
            stroke="currentColor" stroke-width="2" stroke-linecap="round" stroke-linejoin="round" />
    </g>
    <defs>
        <clipPath id="clip0_104_808">
            <rect width="24" height="24" fill="white" />
        </clipPath>
    </defs>
</svg>