<svg width="24" height="24" viewBox="0 0 24 24" fill="none" xmlns="http://www.w3.org/2000/svg">
    <g clip-path="url(#clip0_104_820)">

        <path fill-rule="evenodd" clip-rule="evenodd"
            d="M19 15C17.3425 15 16 16.3765 16 18.0759C16 19.4369 16.8587 20.5865 18.0512 20.9941C18.2012 21.021 18.2575 20.9287 18.2575 20.848C18.2575 20.775 18.2537 20.5328 18.2537 20.2751C17.5 20.4174 17.305 20.0867 17.245 19.9137C17.2112 19.8253 17.065 19.5523 16.9375 19.4792C16.8325 19.4216 16.6825 19.2793 16.9337 19.2755C17.17 19.2717 17.3387 19.4985 17.395 19.5907C17.665 20.056 18.0962 19.9253 18.2687 19.8445C18.295 19.6446 18.3737 19.51 18.46 19.4331C17.7925 19.3562 17.095 19.0909 17.095 17.9144C17.095 17.5799 17.2112 17.303 17.4025 17.0877C17.3725 17.0108 17.2675 16.6955 17.4325 16.2726C17.4325 16.2726 17.6837 16.1919 18.2575 16.5879C18.4975 16.5187 18.7525 16.4841 19.0075 16.4841C19.2625 16.4841 19.5175 16.5187 19.7575 16.5879C20.3312 16.1881 20.5825 16.2726 20.5825 16.2726C20.7475 16.6955 20.6425 17.0108 20.6125 17.0877C20.8037 17.303 20.92 17.5761 20.92 17.9144C20.92 19.0948 20.2187 19.3562 19.5512 19.4331C19.66 19.5292 19.7537 19.7138 19.7537 20.0022C19.7537 20.4135 19.75 20.7442 19.75 20.848C19.75 20.9287 19.8062 21.0249 19.9562 20.9941C20.5518 20.788 21.0693 20.3955 21.4359 19.8721C21.8025 19.3486 21.9998 18.7204 22 18.0759C22 16.3765 20.6575 15 19 15Z"
            fill="#A1A1AA" />
        <path
            d="M6 14.0001L7.5 11.1001C7.66307 10.7762 7.91112 10.5028 8.21761 10.309C8.5241 10.1153 8.8775 10.0085 9.24 10.0001H20M20 10.0001C20.3055 9.99956 20.6071 10.069 20.8816 10.2032C21.1561 10.3373 21.3963 10.5326 21.5836 10.774C21.7709 11.0153 21.9004 11.2964 21.9622 11.5956C21.9622 11.5956 22.0764 11.7042 22 12M20 10.0001V8.0001C20 7.46966 19.7893 6.96096 19.4142 6.58588C19.0391 6.21081 18.5304 6.0001 18 6.0001H12.07C11.7389 6.00004 11.413 5.91778 11.1215 5.7607C10.83 5.60362 10.5821 5.37663 10.4 5.1001L9.59 3.9001C9.40604 3.62072 9.15495 3.39195 8.8597 3.23472C8.56445 3.07748 8.23449 2.99682 7.9 3.0001H4C3.46957 3.0001 2.96086 3.21081 2.58579 3.58588C2.21071 3.96096 2 4.46966 2 5.0001V18.0001C2 18.5305 2.21071 19.0392 2.58579 19.4143C2.96086 19.7894 3.46957 20.0001 4 20.0001H12"
            stroke="currentColor" stroke-width="2" stroke-linecap="round" stroke-linejoin="round" />
    </g>
    <defs>
        <clipPath id="clip0_104_820">
            <rect width="24" height="24" fill="white" />
        </clipPath>
    </defs>
</svg>