<svg width="24" height="24" viewBox="0 0 24 24" fill="none" xmlns="http://www.w3.org/2000/svg">
    <g clip-path="url(#clip0_104_781)">

        <path
            d="M21.8084 17.0456C21.7657 17.0726 21.0109 17.4189 21.0109 18.1887C21.0109 19.0792 21.9713 19.3942 22 19.402C21.9956 19.4213 21.8475 19.8334 21.4937 20.2535C21.1783 20.6231 20.8488 20.9922 20.3477 20.9922C19.8465 20.9922 19.7175 20.7552 19.1389 20.7552C18.5751 20.7552 18.3747 21 17.9163 21C17.4579 21 17.138 20.6579 16.7702 20.2379C16.3442 19.7446 16 18.9784 16 18.2511C16 17.0846 16.9316 16.466 17.8485 16.466C18.3356 16.466 18.7417 16.7264 19.0476 16.7264C19.3387 16.7264 19.7927 16.4504 20.3469 16.4504C20.557 16.4504 21.3117 16.466 21.8084 17.0456ZM20.0838 15.9565C20.313 15.7351 20.4751 15.4279 20.4751 15.1206C20.4751 15.078 20.4707 15.0348 20.4611 15C20.0882 15.0114 19.6445 15.2022 19.377 15.4549C19.1669 15.6493 18.9709 15.9565 18.9709 16.2679C18.9709 16.3147 18.9805 16.3615 18.9849 16.3766C19.0085 16.3801 19.0468 16.3843 19.0851 16.3843C19.4197 16.3843 19.8406 16.2019 20.0838 15.9565Z"
            fill="#A1A1AA" />
        <path
            d="M6 14.0001L7.5 11.1001C7.66307 10.7762 7.91112 10.5028 8.21761 10.309C8.5241 10.1153 8.8775 10.0085 9.24 10.0001H20M20 10.0001C20.3055 9.99956 20.6071 10.069 20.8816 10.2032C21.1561 10.3373 21.3963 10.5326 21.5836 10.774C21.7709 11.0153 21.9004 11.2964 21.9622 11.5956C21.9622 11.5956 22.0764 11.7042 22 12M20 10.0001V8.0001C20 7.46966 19.7893 6.96096 19.4142 6.58588C19.0391 6.21081 18.5304 6.0001 18 6.0001H12.07C11.7389 6.00004 11.413 5.91778 11.1215 5.7607C10.83 5.60362 10.5821 5.37663 10.4 5.1001L9.59 3.9001C9.40604 3.62072 9.15495 3.39195 8.8597 3.23472C8.56445 3.07748 8.23449 2.99682 7.9 3.0001H4C3.46957 3.0001 2.96086 3.21081 2.58579 3.58588C2.21071 3.96096 2 4.46966 2 5.0001V18.0001C2 18.5305 2.21071 19.0392 2.58579 19.4143C2.96086 19.7894 3.46957 20.0001 4 20.0001H12"
            stroke="currentColor" stroke-width="2" stroke-linecap="round" stroke-linejoin="round" />
    </g>
    <defs>
        <clipPath id="clip0_104_781">
            <rect width="24" height="24" fill="white" />
        </clipPath>
    </defs>
</svg>