<svg width="24" height="24" viewBox="0 0 24 24" fill="none" xmlns="http://www.w3.org/2000/svg">
    <g clip-path="url(#clip0_104_970)">

        <path
            d="M19 20C20.1046 20 21 19.1046 21 18C21 16.8954 20.1046 16 19 16C17.8954 16 17 16.8954 17 18C17 19.1046 17.8954 20 19 20Z"
            stroke="#EA580C" stroke-width="2" />
        <path
            d="M6 14.0001L7.5 11.1001C7.66307 10.7762 7.91112 10.5028 8.21761 10.309C8.5241 10.1153 8.8775 10.0085 9.24 10.0001H20M20 10.0001C20.3055 9.99956 20.6071 10.069 20.8816 10.2032C21.1561 10.3373 21.3963 10.5326 21.5836 10.774C21.7709 11.0153 21.9004 11.2964 21.9622 11.5956C21.9622 11.5956 22.0764 11.7042 22 12M20 10.0001V8.0001C20 7.46966 19.7893 6.96096 19.4142 6.58588C19.0391 6.21081 18.5304 6.0001 18 6.0001H12.07C11.7389 6.00004 11.413 5.91778 11.1215 5.7607C10.83 5.60362 10.5821 5.37663 10.4 5.1001L9.59 3.9001C9.40604 3.62072 9.15495 3.39195 8.8597 3.23472C8.56445 3.07748 8.23449 2.99682 7.9 3.0001H4C3.46957 3.0001 2.96086 3.21081 2.58579 3.58588C2.21071 3.96096 2 4.46966 2 5.0001V18.0001C2 18.5305 2.21071 19.0392 2.58579 19.4143C2.96086 19.7894 3.46957 20.0001 4 20.0001H12"
            stroke="currentColor" stroke-width="2" stroke-linecap="round" stroke-linejoin="round" />
    </g>
    <defs>
        <clipPath id="clip0_104_970">
            <rect width="24" height="24" fill="white" />
        </clipPath>
    </defs>
</svg>