<svg width="24" height="24" viewBox="0 0 24 24" fill="none" xmlns="http://www.w3.org/2000/svg">
    <g clip-path="url(#clip0_104_863)">

        <path fill-rule="evenodd" clip-rule="evenodd"
            d="M19 17.5C18.7239 17.5 18.5 17.7239 18.5 18C18.5 18.2761 18.7239 18.5 19 18.5C19.2761 18.5 19.5 18.2761 19.5 18C19.5 17.7239 19.2761 17.5 19 17.5ZM18 18C18 17.4477 18.4477 17 19 17C19.5523 17 20 17.4477 20 18C20 18.5523 19.5523 19 19 19C18.4477 19 18 18.5523 18 18Z"
            fill="#C084FC" />
        <path fill-rule="evenodd" clip-rule="evenodd"
            d="M19 15.6667C17.7113 15.6667 16.6667 16.7113 16.6667 18C16.6667 19.2887 17.7113 20.3333 19 20.3333C20.2887 20.3333 21.3333 19.2887 21.3333 18C21.3333 16.7113 20.2887 15.6667 19 15.6667ZM16 18C16 16.3432 17.3432 15 19 15C20.6568 15 22 16.3432 22 18C22 19.6568 20.6568 21 19 21C17.3432 21 16 19.6568 16 18Z"
            fill="#C084FC" />
        <path
            d="M6 14.0001L7.5 11.1001C7.66307 10.7762 7.91112 10.5028 8.21761 10.309C8.5241 10.1153 8.8775 10.0085 9.24 10.0001H20M20 10.0001C20.3055 9.99956 20.6071 10.069 20.8816 10.2032C21.1561 10.3373 21.3963 10.5326 21.5836 10.774C21.7709 11.0153 21.9004 11.2964 21.9622 11.5956C21.9622 11.5956 22.0764 11.7042 22 12M20 10.0001V8.0001C20 7.46966 19.7893 6.96096 19.4142 6.58588C19.0391 6.21081 18.5304 6.0001 18 6.0001H12.07C11.7389 6.00004 11.413 5.91778 11.1215 5.7607C10.83 5.60362 10.5821 5.37663 10.4 5.1001L9.59 3.9001C9.40604 3.62072 9.15495 3.39195 8.8597 3.23472C8.56445 3.07748 8.23449 2.99682 7.9 3.0001H4C3.46957 3.0001 2.96086 3.21081 2.58579 3.58588C2.21071 3.96096 2 4.46966 2 5.0001V18.0001C2 18.5305 2.21071 19.0392 2.58579 19.4143C2.96086 19.7894 3.46957 20.0001 4 20.0001H12"
            stroke="currentColor" stroke-width="2" stroke-linecap="round" stroke-linejoin="round" />
    </g>
    <defs>
        <clipPath id="clip0_104_863">
            <rect width="24" height="24" fill="white" />
        </clipPath>
    </defs>
</svg>