<svg width="24" height="24" viewBox="0 0 24 24" fill="none" xmlns="http://www.w3.org/2000/svg">
    <g clip-path="url(#clip0_104_803)">

        <path
            d="M19.8525 17.6654C20.2567 17.4243 20.4358 15.9989 20.6108 15.4866C20.7859 14.9743 21.5096 15.0002 21.5096 15.0002C21.5096 15.0002 21.3217 15.2361 21.3983 15.4121C21.475 15.5882 22 15.7455 22 15.7455L21.8868 15.9608C21.8868 15.9608 21.6504 15.939 21.5096 16.142C21.3688 16.345 21.6001 18.3551 21.6001 18.3551C21.6001 18.3551 20.7543 19.5583 20.7543 20.0663C20.7543 20.5743 21.0878 21 21.0878 21H20.62C20.62 21 19.9337 20.4109 19.793 20.1166C19.6522 19.8222 19.7085 19.5279 19.7085 19.5279C19.7085 19.5279 18.9626 19.4974 18.3012 19.5279C17.6399 19.5583 17.1986 19.9684 17.1191 20.1978C17.0394 20.4272 17.0064 21 17.0064 21H16.6368C16.4116 20.4989 16.2327 20.3193 16.3298 20.0663C16.5984 19.3654 16.5456 18.9679 16.4834 18.7909C16.4212 18.6139 16 18.4594 16 18.4594C16.2063 18.1562 16.4169 18.0104 17.3228 17.9952C18.2287 17.9801 19.4483 17.9066 19.8525 17.6654Z"
            fill="#EA580C" />
        <path
            d="M6 14.0001L7.5 11.1001C7.66307 10.7762 7.91112 10.5028 8.21761 10.309C8.5241 10.1153 8.8775 10.0085 9.24 10.0001H20M20 10.0001C20.3055 9.99956 20.6071 10.069 20.8816 10.2032C21.1561 10.3373 21.3963 10.5326 21.5836 10.774C21.7709 11.0153 21.9004 11.2964 21.9622 11.5956C21.9622 11.5956 22.0764 11.7042 22 12M20 10.0001V8.0001C20 7.46966 19.7893 6.96096 19.4142 6.58588C19.0391 6.21081 18.5304 6.0001 18 6.0001H12.07C11.7389 6.00004 11.413 5.91778 11.1215 5.7607C10.83 5.60362 10.5821 5.37663 10.4 5.1001L9.59 3.9001C9.40604 3.62072 9.15495 3.39195 8.8597 3.23472C8.56445 3.07748 8.23449 2.99682 7.9 3.0001H4C3.46957 3.0001 2.96086 3.21081 2.58579 3.58588C2.21071 3.96096 2 4.46966 2 5.0001V18.0001C2 18.5305 2.21071 19.0392 2.58579 19.4143C2.96086 19.7894 3.46957 20.0001 4 20.0001H12"
            stroke="currentColor" stroke-width="2" stroke-linecap="round" stroke-linejoin="round" />
    </g>
    <defs>
        <clipPath id="clip0_104_803">
            <rect width="24" height="24" fill="white" />
        </clipPath>
    </defs>
</svg>