<svg width="24" height="24" viewBox="0 0 24 24" fill="none" xmlns="http://www.w3.org/2000/svg">
    <g clip-path="url(#clip0_104_288)">
        <path
            d="M12 20H4C3.46957 20 2.96086 19.7893 2.58579 19.4142C2.21071 19.0391 2 18.5304 2 18V5C2 4.46957 2.21071 3.96086 2.58579 3.58579C2.96086 3.21071 3.46957 3 4 3H7.93C8.26111 3.00005 8.58702 3.08231 8.8785 3.2394C9.16997 3.39648 9.41789 3.62347 9.6 3.9L10.41 5.1C10.594 5.37938 10.8451 5.60815 11.1403 5.76538C11.4355 5.92261 11.7655 6.00328 12.1 6H20C20.5304 6 21.0391 6.21071 21.4142 6.58579C21.7893 6.96086 22 7.46957 22 8V12"
            stroke="currentColor" stroke-width="2" stroke-linecap="round" stroke-linejoin="round" />
        <path fill-rule="evenodd" clip-rule="evenodd"
            d="M22.5659 15.756L21.9213 16.6344C22.5801 17.3847 23 18.5121 23 19.7706V20.5572C23 20.8018 22.8544 21 22.6749 21H17.384C17.2541 21 17 21 17 20.5572V19.7708C17 18.5121 17.4199 17.3847 18.0788 16.6344L17.4341 15.756C17.3072 15.5831 17.3072 15.3027 17.4341 15.1297C17.561 14.9568 17.7668 14.9568 17.8938 15.1297L18.6314 16.1344C19.042 15.8465 19.5074 15.6838 20 15.6838C20.4926 15.6838 20.958 15.8465 21.3686 16.1344L22.1062 15.1297C22.2332 14.9568 22.439 14.9568 22.5659 15.1297C22.6928 15.3027 22.6928 15.5831 22.5659 15.756ZM17.6501 19.7706V20.1143H22.3499V19.7706C22.3499 18.0055 21.2957 16.5695 20 16.5695C18.7043 16.5695 17.6501 18.0055 17.6501 19.7706ZM19.1333 18.8672C19.2859 18.8672 19.4096 18.6988 19.4096 18.4909C19.4096 18.2828 19.2859 18.1143 19.1333 18.1143C18.9806 18.1143 18.8569 18.2828 18.8569 18.4909C18.8569 18.6988 18.9806 18.8672 19.1333 18.8672ZM21.1866 18.4305C21.1866 18.6386 21.0628 18.8071 20.9103 18.8071C20.7576 18.8071 20.6338 18.6386 20.6338 18.4305C20.6338 18.2226 20.7576 18.0542 20.9103 18.0542C21.0628 18.0542 21.1866 18.2226 21.1866 18.4305Z"
            fill="#4ADE80" />
        <path
            d="M21.8657 16.6877L21.8043 16.605C21.7871 16.6283 21.7779 16.6602 21.779 16.6929C21.7801 16.7258 21.7913 16.7564 21.81 16.7775L21.8657 16.6877ZM18.1344 16.6877L18.19 16.7775C18.2088 16.7564 18.22 16.7258 18.2211 16.6929C18.2222 16.6602 18.213 16.6282 18.1958 16.605L18.1344 16.6877ZM18.671 16.2072L18.6096 16.2899C18.6363 16.3258 18.6772 16.3345 18.7107 16.3112L18.671 16.2072ZM21.329 16.2072L21.2893 16.3112C21.3228 16.3345 21.3637 16.3258 21.3904 16.2899L21.329 16.2072ZM17.7181 20.0318H17.6313C17.6313 20.0964 17.6702 20.1488 17.7181 20.1488V20.0318ZM22.2819 20.0318V20.1488C22.3298 20.1488 22.3687 20.0964 22.3687 20.0318H22.2819ZM21.927 16.7705L22.5531 15.9263L22.4304 15.7609L21.8043 16.605L21.927 16.7705ZM23 19.7016C23 18.4559 22.5799 17.3402 21.9214 16.5979L21.81 16.7775C22.431 17.4773 22.8264 18.5284 22.8264 19.7016H23ZM23 20.4575V19.7016H22.8264V20.4575H23ZM22.5975 21C22.8197 21 23 20.7572 23 20.4575H22.8264C22.8264 20.6279 22.7239 20.766 22.5975 20.766V21ZM17.4597 21H22.5975V20.766H17.4597V21ZM17 20.4575C17 20.5789 17.0176 20.6797 17.0518 20.7611C17.0863 20.8433 17.1346 20.8984 17.1866 20.9341C17.2855 21.002 17.3999 21 17.4597 21V20.766C17.3933 20.766 17.3213 20.7641 17.2653 20.7256C17.2398 20.7081 17.2186 20.6833 17.2028 20.6459C17.1867 20.6075 17.1736 20.5487 17.1736 20.4575H17ZM17 19.7018V20.4575H17.1736V19.7018H17ZM18.0788 16.5979C17.4201 17.3402 17 18.4559 17 19.7018H17.1736C17.1736 18.5284 17.569 17.4773 18.19 16.7775L18.0788 16.5979ZM17.4469 15.9263L18.0731 16.7705L18.1958 16.605L17.5696 15.7609L17.4469 15.9263ZM17.4469 15.1589C17.2899 15.3708 17.2898 15.7145 17.4469 15.9263L17.5696 15.7609C17.4803 15.6404 17.4803 15.445 17.5697 15.3243L17.4469 15.1589ZM18.0162 15.1589C17.8589 14.947 17.6041 14.947 17.4469 15.1589L17.5697 15.3243C17.6591 15.2038 17.804 15.2038 17.8934 15.3244L18.0162 15.1589ZM18.7323 16.1245L18.0162 15.1589L17.8934 15.3244L18.6096 16.2899L18.7323 16.1245ZM20 15.6571C19.5074 15.6571 19.0419 15.8182 18.6313 16.1032L18.7107 16.3112C19.0974 16.0428 19.5358 15.8911 20 15.8911V15.6571ZM21.3687 16.1032C20.958 15.8182 20.4926 15.6571 20 15.6571V15.8911C20.4642 15.8911 20.9026 16.0428 21.2893 16.3112L21.3687 16.1032ZM21.9839 15.1589L21.2677 16.1245L21.3904 16.2899L22.1066 15.3243L21.9839 15.1589ZM22.5531 15.159C22.3959 14.9471 22.1411 14.9471 21.9839 15.1589L22.1066 15.3243C22.196 15.2038 22.341 15.2038 22.4304 15.3243L22.5531 15.159ZM22.5531 15.9263C22.7102 15.7145 22.7102 15.3709 22.5531 15.159L22.4304 15.3243C22.5198 15.445 22.5197 15.6404 22.4304 15.7609L22.5531 15.9263ZM17.8049 20.0318V19.7016H17.6313V20.0318H17.8049ZM22.2819 19.9148H17.7181V20.1488H22.2819V19.9148ZM22.1951 19.7016V20.0318H22.3687V19.7016H22.1951ZM20 16.7423C21.2103 16.7423 22.1951 18.0699 22.1951 19.7016H22.3687C22.3687 17.9407 21.3061 16.5083 20 16.5083V16.7423ZM17.8049 19.7016C17.8049 18.0699 18.7897 16.7423 20 16.7423V16.5083C18.6939 16.5083 17.6313 17.9407 17.6313 19.7016H17.8049ZM19.3399 18.4718C19.3399 18.6069 19.2587 18.7164 19.1584 18.7164V18.9504C19.3545 18.9504 19.5134 18.7361 19.5134 18.4718H19.3399ZM19.1584 18.2269C19.2587 18.2269 19.3399 18.3364 19.3399 18.4718H19.5134C19.5134 18.2072 19.3545 17.9929 19.1584 17.9929V18.2269ZM18.9768 18.4718C18.9768 18.3364 19.058 18.2269 19.1584 18.2269V17.9929C18.9621 17.9929 18.8032 18.2072 18.8032 18.4718H18.9768ZM19.1584 18.7164C19.058 18.7164 18.9768 18.6069 18.9768 18.4718H18.8032C18.8032 18.7361 18.9622 18.9504 19.1584 18.9504V18.7164ZM20.8839 18.8926C21.08 18.8926 21.2391 18.6784 21.2391 18.4137H21.0655C21.0655 18.549 20.9842 18.6586 20.8839 18.6586V18.8926ZM20.5287 18.4137C20.5287 18.6784 20.6878 18.8926 20.8839 18.8926V18.6586C20.7836 18.6586 20.7023 18.549 20.7023 18.4137H20.5287ZM20.8839 17.9351C20.6878 17.9351 20.5287 18.1493 20.5287 18.4137H20.7023C20.7023 18.2786 20.7836 18.1691 20.8839 18.1691V17.9351ZM21.2391 18.4137C21.2391 18.1493 21.08 17.9351 20.8839 17.9351V18.1691C20.9842 18.1691 21.0655 18.2786 21.0655 18.4137H21.2391Z"
            fill="#4ADE80" />
    </g>
    <defs>
        <clipPath id="clip0_104_288">
            <rect width="24" height="24" fill="white" />
        </clipPath>
    </defs>
</svg>