<svg width="24" height="24" viewBox="0 0 24 24" fill="none" xmlns="http://www.w3.org/2000/svg">
    <g clip-path="url(#clip0_104_275)">
        <path
            d="M12 20H4C3.46957 20 2.96086 19.7893 2.58579 19.4142C2.21071 19.0391 2 18.5304 2 18V5C2 4.46957 2.21071 3.96086 2.58579 3.58579C2.96086 3.21071 3.46957 3 4 3H7.93C8.26111 3.00005 8.58702 3.08231 8.8785 3.2394C9.16997 3.39648 9.41789 3.62347 9.6 3.9L10.41 5.1C10.594 5.37938 10.8451 5.60815 11.1403 5.76538C11.4355 5.92261 11.7655 6.00328 12.1 6H20C20.5304 6 21.0391 6.21071 21.4142 6.58579C21.7893 6.96086 22 7.46957 22 8V12"
            stroke="currentColor" stroke-width="2" stroke-linecap="round" stroke-linejoin="round" />
        <path
            d="M23 16.0003L22.7833 19.2144L20.7119 15L23 16.0003ZM21.5652 20.1563L20 21L18.4348 20.1563L18.7531 19.4274H21.2469L21.5652 20.1563ZM20 16.5997L20.8202 18.4834H19.1798L20 16.5997ZM17.2144 19.2144L17 16.0003L19.2881 15L17.2144 19.2144Z"
            fill="#F87171" />
    </g>
    <defs>
        <clipPath id="clip0_104_275">
            <rect width="24" height="24" fill="white" />
        </clipPath>
    </defs>
</svg>