<svg width="24" height="24" viewBox="0 0 24 24" fill="none" xmlns="http://www.w3.org/2000/svg">
    <g clip-path="url(#clip0_104_246)">
        <path
            d="M13.5 20H4C3.46957 20 2.96086 19.7893 2.58579 19.4142C2.21071 19.0391 2 18.5304 2 18V5C2 4.46957 2.21071 3.96086 2.58579 3.58579C2.96086 3.21071 3.46957 3 4 3H7.93C8.26111 3.00005 8.58702 3.08231 8.8785 3.2394C9.16997 3.39648 9.41789 3.62347 9.6 3.9L10.41 5.1C10.594 5.37938 10.8451 5.60815 11.1403 5.76538C11.4355 5.92261 11.7655 6.00328 12.1 6H20C20.5304 6 21.0391 6.21071 21.4142 6.58579C21.7893 6.96086 22 7.46957 22 8V13"
            stroke="currentcolor" stroke-width="2" stroke-linecap="round" stroke-linejoin="round" />
        <path fill-rule="evenodd" clip-rule="evenodd"
            d="M16.875 15C16.3917 15 16 15.3358 16 15.75V16.9167C16 17.3309 16.3917 17.6667 16.875 17.6667H18.2361C18.7193 17.6667 19.1111 17.3309 19.1111 16.9167V15.75C19.1111 15.3358 18.7193 15 18.2361 15H16.875ZM16.875 18.3333C16.3917 18.3333 16 18.6692 16 19.0833V20.25C16 20.6642 16.3917 21 16.875 21H18.2361C18.7193 21 19.1111 20.6642 19.1111 20.25V19.0833C19.1111 18.6692 18.7193 18.3333 18.2361 18.3333H16.875ZM19.8889 15.75C19.8889 15.3358 20.2807 15 20.7639 15H22.125C22.6083 15 23 15.3358 23 15.75V16.9167C23 17.3309 22.6083 17.6667 22.125 17.6667H20.7639C20.2807 17.6667 19.8889 17.3309 19.8889 16.9167V15.75ZM20.7639 18.3333C20.2807 18.3333 19.8889 18.6692 19.8889 19.0833V20.25C19.8889 20.6642 20.2807 21 20.7639 21H22.125C22.6083 21 23 20.6642 23 20.25V19.0833C23 18.6692 22.6083 18.3333 22.125 18.3333H20.7639Z"
            fill="#F87171" />
    </g>
    <defs>
        <clipPath id="clip0_104_246">
            <rect width="24" height="24" fill="white" />
        </clipPath>
    </defs>
</svg>