<svg width="24" height="24" viewBox="0 0 24 24" fill="none" xmlns="http://www.w3.org/2000/svg">
    <g clip-path="url(#clip0_104_252)">
        <path
            d="M12 20H4C3.46957 20 2.96086 19.7893 2.58579 19.4142C2.21071 19.0391 2 18.5304 2 18V5C2 4.46957 2.21071 3.96086 2.58579 3.58579C2.96086 3.21071 3.46957 3 4 3H7.93C8.26111 3.00005 8.58702 3.08231 8.8785 3.2394C9.16997 3.39648 9.41789 3.62347 9.6 3.9L10.41 5.1C10.594 5.37938 10.8451 5.60815 11.1403 5.76538C11.4355 5.92261 11.7655 6.00328 12.1 6H20C20.5304 6 21.0391 6.21071 21.4142 6.58579C21.7893 6.96086 22 7.46957 22 8V12"
            stroke="currentColor" stroke-width="2" stroke-linecap="round" stroke-linejoin="round" />
        <path
            d="M21.5 21C22.3284 21 23 20.3284 23 19.5C23 18.6716 22.3284 18 21.5 18C20.6716 18 20 18.6716 20 19.5C20 20.3284 20.6716 21 21.5 21Z"
            fill="#2563EB" />
        <path
            d="M19.25 15H17.75C17.3358 15 17 15.3358 17 15.75V17.25C17 17.6642 17.3358 18 17.75 18H19.25C19.6642 18 20 17.6642 20 17.25V15.75C20 15.3358 19.6642 15 19.25 15Z"
            fill="#0D9488" />
        <path d="M18 19L19 21H17L18 19Z" fill="#22D3EE" />
        <path
            d="M21.5701 15.2993C21.7178 14.9002 22.2822 14.9002 22.4299 15.2993C22.4763 15.4248 22.5752 15.5237 22.7007 15.5701C23.0998 15.7178 23.0998 16.2822 22.7007 16.4299C22.5752 16.4763 22.4763 16.5752 22.4299 16.7007C22.2822 17.0998 21.7178 17.0998 21.5701 16.7007C21.5237 16.5752 21.4248 16.4763 21.2993 16.4299C20.9002 16.2822 20.9002 15.7178 21.2993 15.5701C21.4248 15.5237 21.5237 15.4248 21.5701 15.2993Z"
            fill="#C084FC" />
    </g>
    <defs>
        <clipPath id="clip0_104_252">
            <rect width="24" height="24" fill="white" />
        </clipPath>
    </defs>
</svg>