<svg width="24" height="24" viewBox="0 0 24 24" fill="none" xmlns="http://www.w3.org/2000/svg">
    <g clip-path="url(#clip0_104_319)">
        <path
            d="M12 20H4C3.46957 20 2.96086 19.7893 2.58579 19.4142C2.21071 19.0391 2 18.5304 2 18V5C2 4.46957 2.21071 3.96086 2.58579 3.58579C2.96086 3.21071 3.46957 3 4 3H7.93C8.26111 3.00005 8.58702 3.08231 8.8785 3.2394C9.16997 3.39648 9.41789 3.62347 9.6 3.9L10.41 5.1C10.594 5.37938 10.8451 5.60815 11.1403 5.76538C11.4355 5.92261 11.7655 6.00328 12.1 6H20C20.5304 6 21.0391 6.21071 21.4142 6.58579C21.7893 6.96086 22 7.46957 22 8V12"
            stroke="currentColor" stroke-width="2" stroke-linecap="round" stroke-linejoin="round" />
        <path
            d="M19.8333 14C19.373 14 19 14.373 19 14.8334V15.3333H17.6667C17.2983 15.3333 17 15.6317 17 16V17C17 17.184 17.1493 17.3333 17.3333 17.3333H17.4525C17.8885 17.3333 18.2851 17.647 18.3287 18.0808C18.3787 18.5798 17.9887 19 17.5 19H17.3333C17.1493 19 17 19.1493 17 19.3333V20.3333C17 20.7016 17.2983 21 17.6667 21H18.6667C18.8507 21 19 20.8507 19 20.6667V20.5475C19 20.1115 19.3137 19.7149 19.7474 19.6713C20.2464 19.6213 20.6667 20.0113 20.6667 20.5V20.6667C20.6667 20.8507 20.816 21 21 21H22C22.3683 21 22.6667 20.7016 22.6667 20.3333V19H23.1666C23.627 19 24 18.627 24 18.1667C24 17.7063 23.627 17.3333 23.1666 17.3333H22.6667V16C22.6667 15.6317 22.3683 15.3333 22 15.3333H20.6667V14.8334C20.6667 14.373 20.2937 14 19.8333 14Z"
            fill="#14B8A6" />
    </g>
    <defs>
        <clipPath id="clip0_104_319">
            <rect width="24" height="24" fill="white" />
        </clipPath>
    </defs>
</svg>