<svg width="24" height="24" viewBox="0 0 24 24" fill="none" xmlns="http://www.w3.org/2000/svg">
    <g clip-path="url(#clip0_104_346)">
        <path
            d="M12 20H4C3.46957 20 2.96086 19.7893 2.58579 19.4142C2.21071 19.0391 2 18.5304 2 18V5C2 4.46957 2.21071 3.96086 2.58579 3.58579C2.96086 3.21071 3.46957 3 4 3H7.93C8.26111 3.00005 8.58702 3.08231 8.8785 3.2394C9.16997 3.39648 9.41789 3.62347 9.6 3.9L10.41 5.1C10.594 5.37938 10.8451 5.60815 11.1403 5.76538C11.4355 5.92261 11.7655 6.00328 12.1 6H20C20.5304 6 21.0391 6.21071 21.4142 6.58579C21.7893 6.96086 22 7.46957 22 8V12"
            stroke="currentColor" stroke-width="2" stroke-linecap="round" stroke-linejoin="round" />
        <path
            d="M18.1816 15.9363C18.3593 16.5747 17.9899 17.2383 17.3682 17.3979L17.0385 17.4825C17.0131 17.651 17 17.8239 17 18C17 18.1843 17.0144 18.3649 17.0421 18.5407L17.3465 18.6168C17.9745 18.7737 18.3477 19.4442 18.1649 20.0869L18.0597 20.4565C18.3077 20.6823 18.5901 20.8657 18.8974 20.9961L19.1759 20.6924C19.6209 20.2069 20.3671 20.207 20.8121 20.6927L21.0935 21C21.4003 20.871 21.6825 20.6893 21.9304 20.4655L21.8187 20.0638C21.641 19.4253 22.0103 18.7617 22.6321 18.6021L22.9615 18.5175C22.9869 18.349 23 18.1762 23 18C23 17.8157 22.9856 17.6351 22.9579 17.4592L22.6537 17.3832C22.0258 17.2263 21.6526 16.5559 21.8354 15.9131L21.9404 15.5437C21.6926 15.3179 21.4101 15.1345 21.1027 15.004L20.8245 15.3076C20.3794 15.7932 19.6331 15.793 19.1882 15.3073L18.9067 15C18.5999 15.1289 18.3177 15.3105 18.0698 15.5345L18.1816 15.9363ZM20 18.8784C19.5481 18.8784 19.1818 18.4851 19.1818 18C19.1818 17.5149 19.5481 17.1217 20 17.1217C20.4519 17.1217 20.8182 17.5149 20.8182 18C20.8182 18.4851 20.4519 18.8784 20 18.8784Z"
            fill="#0EA5E9" />
    </g>
    <defs>
        <clipPath id="clip0_104_346">
            <rect width="24" height="24" fill="white" />
        </clipPath>
    </defs>
</svg>