<svg width="24" height="24" viewBox="0 0 24 24" fill="none" xmlns="http://www.w3.org/2000/svg">
    <g clip-path="url(#clip0_104_305)">
        <path
            d="M12 20H4C3.46957 20 2.96086 19.7893 2.58579 19.4142C2.21071 19.0391 2 18.5304 2 18V5C2 4.46957 2.21071 3.96086 2.58579 3.58579C2.96086 3.21071 3.46957 3 4 3H7.93C8.26111 3.00005 8.58702 3.08231 8.8785 3.2394C9.16997 3.39648 9.41789 3.62347 9.6 3.9L10.41 5.1C10.594 5.37938 10.8451 5.60815 11.1403 5.76538C11.4355 5.92261 11.7655 6.00328 12.1 6H20C20.5304 6 21.0391 6.21071 21.4142 6.58579C21.7893 6.96086 22 7.46957 22 8V12"
            stroke="currentColor" stroke-width="2" stroke-linecap="round" stroke-linejoin="round" />
        <path
            d="M20.5 18C21.3284 18 22 17.3284 22 16.5C22 15.6716 21.3284 15 20.5 15C19.6716 15 19 15.6716 19 16.5C19 17.3284 19.6716 18 20.5 18Z"
            fill="#C084FC" />
        <path
            d="M18.5 21C19.3284 21 20 20.3284 20 19.5C20 18.6716 19.3284 18 18.5 18C17.6716 18 17 18.6716 17 19.5C17 20.3284 17.6716 21 18.5 21Z"
            fill="#C084FC" />
        <path
            d="M22.5 21C23.3284 21 24 20.3284 24 19.5C24 18.6716 23.3284 18 22.5 18C21.6716 18 21 18.6716 21 19.5C21 20.3284 21.6716 21 22.5 21Z"
            fill="#C084FC" />
    </g>
    <defs>
        <clipPath id="clip0_104_305">
            <rect width="24" height="24" fill="white" />
        </clipPath>
    </defs>
</svg>