<svg width="24" height="24" viewBox="0 0 24 24" fill="none" xmlns="http://www.w3.org/2000/svg">
    <g clip-path="url(#clip0_104_374)">
        <path
            d="M12 20H4C3.46957 20 2.96086 19.7893 2.58579 19.4142C2.21071 19.0391 2 18.5304 2 18V5C2 4.46957 2.21071 3.96086 2.58579 3.58579C2.96086 3.21071 3.46957 3 4 3H7.93C8.26111 3.00005 8.58702 3.08231 8.8785 3.2394C9.16997 3.39648 9.41789 3.62347 9.6 3.9L10.41 5.1C10.594 5.37938 10.8451 5.60815 11.1403 5.76538C11.4355 5.92261 11.7655 6.00328 12.1 6H20C20.5304 6 21.0391 6.21071 21.4142 6.58579C21.7893 6.96086 22 7.46957 22 8V12"
            stroke="currentColor" stroke-width="2" stroke-linecap="round" stroke-linejoin="round" />
        <path
            d="M20 17C20.4822 17 20.9362 16.9252 21.2836 16.7911C21.4562 16.7244 21.6219 16.6358 21.7507 16.5182C21.8801 16.4001 22 16.2253 22 16C22 15.7747 21.8801 15.5999 21.7507 15.4818C21.6219 15.3642 21.4562 15.2756 21.2836 15.2089C20.9362 15.0748 20.4822 15 20 15C19.5178 15 19.0638 15.0748 18.7163 15.2089C18.5437 15.2756 18.3781 15.3642 18.2493 15.4818C18.1199 15.5999 18 15.7747 18 16C18 16.2253 18.1199 16.4001 18.2493 16.5182C18.3781 16.6358 18.5437 16.7244 18.7163 16.7911C19.0638 16.9252 19.5178 17 20 17Z"
            stroke="#F472B6" stroke-width="1.12188" />
        <path
            d="M18 19.2461V16L18.3332 16.6718L18.51 17.1432L19.9127 17.2027L21.8622 16.4897L22 16V19.2461C22 19.6624 21.6328 20 21.1799 20H18.8201C18.3672 20 18 19.6624 18 19.2461Z"
            fill="#F472B6" stroke="#F472B6" stroke-width="1.12188" stroke-linejoin="round" />
    </g>
    <defs>
        <clipPath id="clip0_104_374">
            <rect width="24" height="24" fill="white" />
        </clipPath>
    </defs>
</svg>