<svg width="24" height="24" viewBox="0 0 24 24" fill="none" xmlns="http://www.w3.org/2000/svg">
    <g clip-path="url(#clip0_104_393)">

        <path
            d="M12 20H4C3.46957 20 2.96086 19.7893 2.58579 19.4142C2.21071 19.0391 2 18.5304 2 18V5C2 4.46957 2.21071 3.96086 2.58579 3.58579C2.96086 3.21071 3.46957 3 4 3H7.93C8.26111 3.00005 8.58702 3.08231 8.8785 3.2394C9.16997 3.39648 9.41789 3.62347 9.6 3.9L10.41 5.1C10.594 5.37938 10.8451 5.60815 11.1403 5.76538C11.4355 5.92261 11.7655 6.00328 12.1 6H20C20.5304 6 21.0391 6.21071 21.4142 6.58579C21.7893 6.96086 22 7.46957 22 8V12"
            stroke="currentColor" stroke-width="2" stroke-linecap="round" stroke-linejoin="round" />
        <path
            d="M18.2596 16.493C18.3385 16.3454 18.2901 16.1583 18.1517 16.0754C18.0137 15.9927 17.8385 16.0448 17.7599 16.1919L17.0378 17.5431C16.959 17.6907 17.0074 17.8778 17.1458 17.9607C17.2837 18.0434 17.459 17.9913 17.5376 17.8442L18.2596 16.493ZM20.0665 15.4568C20.1453 15.3093 20.0969 15.1222 19.9585 15.0392C19.8205 14.9566 19.6453 15.0087 19.5667 15.1557L18.8446 16.507C18.7658 16.6546 18.8142 16.8417 18.9526 16.9247C19.0906 17.0073 19.2658 16.9552 19.3444 16.8081L20.0665 15.4568ZM22.9622 15.4569C23.041 15.3094 22.9926 15.1222 22.8542 15.0393C22.7163 14.9567 22.541 15.0088 22.4624 15.1558L21.7404 16.5071C21.6615 16.6546 21.7099 16.8418 21.8483 16.9247C21.9863 17.0073 22.1615 16.9552 22.2401 16.8082L22.9622 15.4569ZM21.155 16.493C21.2339 16.3454 21.1855 16.1583 21.047 16.0754C20.9091 15.9927 20.7338 16.0448 20.6552 16.1919L19.9332 17.5431C19.8543 17.6907 19.9027 17.8778 20.0411 17.9607C20.1791 18.0434 20.3544 17.9913 20.4329 17.8442L21.155 16.493Z"
            fill="#4ADE80" stroke="#4ADE80" stroke-width="0.25" />
    </g>
    <defs>
        <clipPath id="clip0_104_393">
            <rect width="24" height="24" fill="white" />
        </clipPath>
    </defs>
</svg>