<svg width="24" height="24" viewBox="0 0 24 24" fill="none" xmlns="http://www.w3.org/2000/svg">
    <g clip-path="url(#clip0_104_382)">
        <path
            d="M12 20H4C3.46957 20 2.96086 19.7893 2.58579 19.4142C2.21071 19.0391 2 18.5304 2 18V5C2 4.46957 2.21071 3.96086 2.58579 3.58579C2.96086 3.21071 3.46957 3 4 3H7.93C8.26111 3.00005 8.58702 3.08231 8.8785 3.2394C9.16997 3.39648 9.41789 3.62347 9.6 3.9L10.41 5.1C10.594 5.37938 10.8451 5.60815 11.1403 5.76538C11.4355 5.92261 11.7655 6.00328 12.1 6H20C20.5304 6 21.0391 6.21071 21.4142 6.58579C21.7893 6.96086 22 7.46957 22 8V12"
            stroke="currentColor" stroke-width="2" stroke-linecap="round" stroke-linejoin="round" />
        <path fill-rule="evenodd" clip-rule="evenodd"
            d="M20 15C18.3425 15 17 16.3765 17 18.0759C17 19.4369 17.8587 20.5865 19.0512 20.9941C19.2012 21.021 19.2575 20.9287 19.2575 20.848C19.2575 20.775 19.2537 20.5328 19.2537 20.2751C18.5 20.4174 18.305 20.0867 18.245 19.9137C18.2112 19.8253 18.065 19.5523 17.9375 19.4792C17.8325 19.4216 17.6825 19.2793 17.9337 19.2755C18.17 19.2717 18.3387 19.4985 18.395 19.5907C18.665 20.056 19.0962 19.9253 19.2687 19.8445C19.295 19.6446 19.3737 19.51 19.46 19.4331C18.7925 19.3562 18.095 19.0909 18.095 17.9144C18.095 17.5799 18.2112 17.303 18.4025 17.0877C18.3725 17.0108 18.2675 16.6955 18.4325 16.2726C18.4325 16.2726 18.6837 16.1919 19.2575 16.5879C19.4975 16.5187 19.7525 16.4841 20.0075 16.4841C20.2625 16.4841 20.5175 16.5187 20.7575 16.5879C21.3312 16.1881 21.5825 16.2726 21.5825 16.2726C21.7475 16.6955 21.6425 17.0108 21.6125 17.0877C21.8037 17.303 21.92 17.5761 21.92 17.9144C21.92 19.0948 21.2187 19.3562 20.5512 19.4331C20.66 19.5292 20.7537 19.7138 20.7537 20.0022C20.7537 20.4135 20.75 20.7442 20.75 20.848C20.75 20.9287 20.8062 21.0249 20.9562 20.9941C21.5518 20.788 22.0693 20.3955 22.4359 19.8721C22.8025 19.3486 22.9998 18.7204 23 18.0759C23 16.3765 21.6575 15 20 15Z"
            fill="#A1A1AA" />
    </g>
    <defs>
        <clipPath id="clip0_104_382">
            <rect width="24" height="24" fill="white" />
        </clipPath>
    </defs>
</svg>