<svg width="24" height="24" viewBox="0 0 24 24" fill="none" xmlns="http://www.w3.org/2000/svg">
    <g clip-path="url(#clip0_104_283)">

        <path
            d="M12 20H4C3.46957 20 2.96086 19.7893 2.58579 19.4142C2.21071 19.0391 2 18.5304 2 18V5C2 4.46957 2.21071 3.96086 2.58579 3.58579C2.96086 3.21071 3.46957 3 4 3H7.93C8.26111 3.00005 8.58702 3.08231 8.8785 3.2394C9.16997 3.39648 9.41789 3.62347 9.6 3.9L10.41 5.1C10.594 5.37938 10.8451 5.60815 11.1403 5.76538C11.4355 5.92261 11.7655 6.00328 12.1 6H20C20.5304 6 21.0391 6.21071 21.4142 6.58579C21.7893 6.96086 22 7.46957 22 8V12"
            stroke="currentColor" stroke-width="2" stroke-linecap="round" stroke-linejoin="round" />
        <path
            d="M22.8084 17.0456C22.7657 17.0726 22.0109 17.4189 22.0109 18.1887C22.0109 19.0792 22.9713 19.3942 23 19.402C22.9956 19.4213 22.8475 19.8334 22.4937 20.2535C22.1783 20.6231 21.8488 20.9922 21.3477 20.9922C20.8465 20.9922 20.7175 20.7552 20.1389 20.7552C19.5751 20.7552 19.3747 21 18.9163 21C18.4579 21 18.138 20.6579 17.7702 20.2379C17.3442 19.7446 17 18.9784 17 18.2511C17 17.0846 17.9316 16.466 18.8485 16.466C19.3356 16.466 19.7417 16.7264 20.0476 16.7264C20.3387 16.7264 20.7927 16.4504 21.3469 16.4504C21.557 16.4504 22.3117 16.466 22.8084 17.0456ZM21.0838 15.9565C21.313 15.7351 21.4751 15.4279 21.4751 15.1206C21.4751 15.078 21.4707 15.0348 21.4611 15C21.0882 15.0114 20.6445 15.2022 20.377 15.4549C20.1669 15.6493 19.9709 15.9565 19.9709 16.2679C19.9709 16.3147 19.9805 16.3615 19.9849 16.3766C20.0085 16.3801 20.0468 16.3843 20.0851 16.3843C20.4197 16.3843 20.8406 16.2019 21.0838 15.9565Z"
            fill="#A1A1AA" />
    </g>
    <defs>
        <clipPath id="clip0_104_283">
            <rect width="24" height="24" fill="white" />
        </clipPath>
    </defs>
</svg>