<svg width="24" height="24" viewBox="0 0 24 24" fill="none" xmlns="http://www.w3.org/2000/svg">
    <g clip-path="url(#clip0_104_298)">

        <path
            d="M12 20H4C3.46957 20 2.96086 19.7893 2.58579 19.4142C2.21071 19.0391 2 18.5304 2 18V5C2 4.46957 2.21071 3.96086 2.58579 3.58579C2.96086 3.21071 3.46957 3 4 3H7.93C8.26111 3.00005 8.58702 3.08231 8.8785 3.2394C9.16997 3.39648 9.41789 3.62347 9.6 3.9L10.41 5.1C10.594 5.37938 10.8451 5.60815 11.1403 5.76538C11.4355 5.92261 11.7655 6.00328 12.1 6H20C20.5304 6 21.0391 6.21071 21.4142 6.58579C21.7893 6.96086 22 7.46957 22 8V12"
            stroke="currentColor" stroke-width="2" stroke-linecap="round" stroke-linejoin="round" />
        <path fill-rule="evenodd" clip-rule="evenodd"
            d="M17 15.885C17 15.3963 17.3447 15 17.7699 15H19.1401C19.5653 15 19.91 15.3963 19.91 15.885V20.115C19.91 20.6037 19.5653 21 19.1401 21H17.7699C17.3447 21 17 20.6037 17 20.115V15.885ZM20.6904 15.885C20.6904 15.3963 21.0351 15 21.4602 15H22.2301C22.6553 15 23 15.3963 23 15.885V16.7701C23 17.2589 22.6553 17.6551 22.2301 17.6551H21.4602C21.0351 17.6551 20.6904 17.2589 20.6904 16.7701V15.885ZM21.2904 18.3449C20.959 18.3449 20.6904 18.6537 20.6904 19.0346V20.3102C20.6904 20.6912 20.959 21 21.2904 21H22.4C22.7314 21 23 20.6912 23 20.3102V19.0346C23 18.6537 22.7314 18.3449 22.4 18.3449H21.2904Z"
            fill="#0EA5E9" />
    </g>
    <defs>
        <clipPath id="clip0_104_298">
            <rect width="24" height="24" fill="white" />
        </clipPath>
    </defs>
</svg>