<svg width="24" height="24" viewBox="0 0 24 24" fill="none" xmlns="http://www.w3.org/2000/svg">
    <g clip-path="url(#clip0_104_386)">

        <path
            d="M12 20H4C3.46957 20 2.96086 19.7893 2.58579 19.4142C2.21071 19.0391 2 18.5304 2 18V5C2 4.46957 2.21071 3.96086 2.58579 3.58579C2.96086 3.21071 3.46957 3 4 3H7.93C8.26111 3.00005 8.58702 3.08231 8.8785 3.2394C9.16997 3.39648 9.41789 3.62347 9.6 3.9L10.41 5.1C10.594 5.37938 10.8451 5.60815 11.1403 5.76538C11.4355 5.92261 11.7655 6.00328 12.1 6H20C20.5304 6 21.0391 6.21071 21.4142 6.58579C21.7893 6.96086 22 7.46957 22 8V12"
            stroke="currentColor" stroke-width="2" stroke-linecap="round" stroke-linejoin="round" />
        <path
            d="M20.531 20.8966C20.3751 21.0965 20.0585 20.9876 20.0547 20.7323L20 17H22.4654C22.912 17 23.1609 17.5256 22.8833 17.8804L20.531 20.8966Z"
            fill="url(#paint0_linear_104_386)" />
        <path
            d="M20.531 20.8966C20.3751 21.0965 20.0585 20.9876 20.0547 20.7323L20 17H22.4654C22.912 17 23.1609 17.5256 22.8833 17.8804L20.531 20.8966Z"
            fill="url(#paint1_linear_104_386)" />
        <path
            d="M19.4954 15.1033C19.653 14.9034 19.9719 15.0126 19.9758 15.2679L20 19H17.5401C17.0889 19 16.8374 18.4745 17.1179 18.1195L19.4954 15.1033Z"
            fill="#3ECF8E" />
    </g>
    <defs>
        <linearGradient id="paint0_linear_104_386" x1="20.0001" y1="17.8277" x2="22.2027"
            y2="18.7353" gradientUnits="userSpaceOnUse">
            <stop stop-color="#249361" />
            <stop offset="1" stop-color="#3ECF8E" />
        </linearGradient>
        <linearGradient id="paint1_linear_104_386" x1="19.0286" y1="16.4739" x2="20.0557"
            y2="18.3735" gradientUnits="userSpaceOnUse">
            <stop stop-opacity="0.2" />
            <stop offset="1" stop-opacity="0" />
        </linearGradient>
        <clipPath id="clip0_104_386">
            <rect width="24" height="24" fill="white" />
        </clipPath>
    </defs>
</svg>