<svg width="24" height="24" viewBox="0 0 24 24" fill="none" xmlns="http://www.w3.org/2000/svg">
    <g clip-path="url(#clip0_104_324)">

        <path
            d="M12 20H4C3.46957 20 2.96086 19.7893 2.58579 19.4142C2.21071 19.0391 2 18.5304 2 18V5C2 4.46957 2.21071 3.96086 2.58579 3.58579C2.96086 3.21071 3.46957 3 4 3H7.93C8.26111 3.00005 8.58702 3.08231 8.8785 3.2394C9.16997 3.39648 9.41789 3.62347 9.6 3.9L10.41 5.1C10.594 5.37938 10.8451 5.60815 11.1403 5.76538C11.4355 5.92261 11.7655 6.00328 12.1 6H20C20.5304 6 21.0391 6.21071 21.4142 6.58579C21.7893 6.96086 22 7.46957 22 8V12"
            stroke="currentColor" stroke-width="2" stroke-linecap="round" stroke-linejoin="round" />
        <path fill-rule="evenodd" clip-rule="evenodd"
            d="M20 17.5C19.7239 17.5 19.5 17.7239 19.5 18C19.5 18.2761 19.7239 18.5 20 18.5C20.2761 18.5 20.5 18.2761 20.5 18C20.5 17.7239 20.2761 17.5 20 17.5ZM19 18C19 17.4477 19.4477 17 20 17C20.5523 17 21 17.4477 21 18C21 18.5523 20.5523 19 20 19C19.4477 19 19 18.5523 19 18Z"
            fill="#C084FC" />
        <path fill-rule="evenodd" clip-rule="evenodd"
            d="M20 15.6667C18.7113 15.6667 17.6667 16.7113 17.6667 18C17.6667 19.2887 18.7113 20.3333 20 20.3333C21.2887 20.3333 22.3333 19.2887 22.3333 18C22.3333 16.7113 21.2887 15.6667 20 15.6667ZM17 18C17 16.3432 18.3432 15 20 15C21.6568 15 23 16.3432 23 18C23 19.6568 21.6568 21 20 21C18.3432 21 17 19.6568 17 18Z"
            fill="#C084FC" />
    </g>
    <defs>
        <clipPath id="clip0_104_324">
            <rect width="24" height="24" fill="white" />
        </clipPath>
    </defs>
</svg>