<svg width="24" height="24" viewBox="0 0 24 24" fill="none" xmlns="http://www.w3.org/2000/svg">
    <g clip-path="url(#clip0_104_397)">

        <path
            d="M12 20H4C3.46957 20 2.96086 19.7893 2.58579 19.4142C2.21071 19.0391 2 18.5304 2 18V5C2 4.46957 2.21071 3.96086 2.58579 3.58579C2.96086 3.21071 3.46957 3 4 3H7.93C8.26111 3.00005 8.58702 3.08231 8.8785 3.2394C9.16997 3.39648 9.41789 3.62347 9.6 3.9L10.41 5.1C10.594 5.37938 10.8451 5.60815 11.1403 5.76538C11.4355 5.92261 11.7655 6.00328 12.1 6H20C20.5304 6 21.0391 6.21071 21.4142 6.58579C21.7893 6.96086 22 7.46957 22 8V12"
            stroke="currentColor" stroke-width="2" stroke-linecap="round" stroke-linejoin="round" />
        <path
            d="M20.8525 17.6654C21.2567 17.4243 21.4358 15.9989 21.6108 15.4866C21.7859 14.9743 22.5096 15.0002 22.5096 15.0002C22.5096 15.0002 22.3217 15.2361 22.3983 15.4121C22.475 15.5882 23 15.7455 23 15.7455L22.8868 15.9608C22.8868 15.9608 22.6504 15.939 22.5096 16.142C22.3688 16.345 22.6001 18.3551 22.6001 18.3551C22.6001 18.3551 21.7543 19.5583 21.7543 20.0663C21.7543 20.5743 22.0878 21 22.0878 21H21.62C21.62 21 20.9337 20.4109 20.793 20.1166C20.6522 19.8222 20.7085 19.5279 20.7085 19.5279C20.7085 19.5279 19.9626 19.4974 19.3012 19.5279C18.6399 19.5583 18.1986 19.9684 18.1191 20.1978C18.0394 20.4272 18.0064 21 18.0064 21H17.6368C17.4116 20.4989 17.2327 20.3193 17.3298 20.0663C17.5984 19.3654 17.5456 18.9679 17.4834 18.7909C17.4212 18.6139 17 18.4594 17 18.4594C17.2063 18.1562 17.4169 18.0104 18.3228 17.9952C19.2287 17.9801 20.4483 17.9066 20.8525 17.6654Z"
            fill="#EA580C" />
    </g>
    <defs>
        <clipPath id="clip0_104_397">
            <rect width="24" height="24" fill="white" />
        </clipPath>
    </defs>
</svg>