<svg width="24" height="24" viewBox="0 0 24 24" fill="none" xmlns="http://www.w3.org/2000/svg">
    <g clip-path="url(#clip0_104_334)">

        <path
            d="M12 20H4C3.46957 20 2.96086 19.7893 2.58579 19.4142C2.21071 19.0391 2 18.5304 2 18V5C2 4.46957 2.21071 3.96086 2.58579 3.58579C2.96086 3.21071 3.46957 3 4 3H7.93C8.26111 3.00005 8.58702 3.08231 8.8785 3.2394C9.16997 3.39648 9.41789 3.62347 9.6 3.9L10.41 5.1C10.594 5.37938 10.8451 5.60815 11.1403 5.76538C11.4355 5.92261 11.7655 6.00328 12.1 6H20C20.5304 6 21.0391 6.21071 21.4142 6.58579C21.7893 6.96086 22 7.46957 22 8V12"
            stroke="currentColor" stroke-width="2" stroke-linecap="round" stroke-linejoin="round" />
        <path
            d="M22.9589 16.5156L22.9584 16.513C22.9525 16.4848 22.8379 15.9474 22.6842 15.9474C22.5658 15.9474 22.0933 16.4792 21.8635 16.7456C21.7813 16.841 21.6629 16.8947 21.5373 16.8947C21.2985 16.8947 21.1053 16.7014 21.1053 16.4627C21.1053 16.3371 21.1589 16.2187 21.2543 16.1365C21.5209 15.9067 22.0526 15.4342 22.0526 15.3158C22.0526 15.1611 21.507 15.0433 21.4852 15.0387L21.4835 15.0383C21.36 15.0129 21.2325 15 21.1053 15C20.0603 15 19.2105 15.858 19.2105 16.9124C19.2105 16.9296 19.2108 16.9468 19.2113 16.964C19.2183 17.1862 19.1621 17.4132 19.0035 17.569L17.2965 19.2455C16.9011 19.6462 16.9011 20.2977 17.2968 20.6984C17.4895 20.8926 17.7462 21 18.0203 21C18.2941 21 18.5511 20.8926 18.7403 20.7013L20.4791 18.9928C20.6228 18.8517 20.825 18.788 21.0263 18.7893C21.0527 18.7894 21.079 18.7894 21.1053 18.7894C22.1676 18.7894 23 17.965 23 16.9124C23 16.7796 22.9862 16.6458 22.9589 16.5156Z"
            fill="#C084FC" />
    </g>
    <defs>
        <clipPath id="clip0_104_334">
            <rect width="24" height="24" fill="white" />
        </clipPath>
    </defs>
</svg>